RobotoSerifDisplay-HairlineCondItalic.ufo
<glyph name="ampersand" format="2">
  <advance width="476"/>
  <unicode hex="0026"/>
  <outline>
    <contour>
      <point x="440" y="0" type="line"/>
      <point x="442" y="15" type="line"/>
      <point x="435" y="15" type="line" smooth="yes"/>
      <point x="404" y="15"/>
      <point x="389" y="38"/>
      <point x="362" y="82" type="curve" smooth="yes"/>
      <point x="245" y="272"/>
      <point x="195" y="404"/>
      <point x="195" y="536" type="curve" smooth="yes"/>
      <point x="195" y="643"/>
      <point x="228" y="703"/>
      <point x="277" y="703" type="curve" smooth="yes"/>
      <point x="313" y="703"/>
      <point x="334" y="663"/>
      <point x="334" y="607" type="curve" smooth="yes"/>
      <point x="334" y="512"/>
      <point x="289" y="461"/>
      <point x="204" y="418" type="curve"/>
      <point x="209" y="405" type="line"/>
      <point x="300" y="451"/>
      <point x="366" y="506"/>
      <point x="366" y="607" type="curve" smooth="yes"/>
      <point x="366" y="673"/>
      <point x="330" y="720"/>
      <point x="277" y="720" type="curve" smooth="yes"/>
      <point x="208" y="720"/>
      <point x="162" y="644"/>
      <point x="161" y="533" type="curve" smooth="yes"/>
      <point x="159" y="358"/>
      <point x="252" y="186"/>
      <point x="370" y="0" type="curve"/>
    </contour>
    <contour>
      <point x="179" y="7" type="curve" smooth="yes"/>
      <point x="109" y="7"/>
      <point x="70" y="75"/>
      <point x="70" y="175" type="curve" smooth="yes"/>
      <point x="70" y="302"/>
      <point x="122" y="362"/>
      <point x="195" y="400" type="curve"/>
      <point x="191" y="413" type="line"/>
      <point x="109" y="375"/>
      <point x="33" y="310"/>
      <point x="33" y="174" type="curve" smooth="yes"/>
      <point x="33" y="65"/>
      <point x="87" y="-10"/>
      <point x="177" y="-10" type="curve" smooth="yes"/>
      <point x="323" y="-10"/>
      <point x="387" y="226"/>
      <point x="413" y="343" type="curve" smooth="yes"/>
      <point x="420" y="375"/>
      <point x="442" y="379"/>
      <point x="472" y="379" type="curve" smooth="yes"/>
      <point x="474" y="379" type="line"/>
      <point x="476" y="394" type="line"/>
      <point x="348" y="394" type="line"/>
      <point x="346" y="379" type="line"/>
      <point x="348" y="379" type="line" smooth="yes"/>
      <point x="369" y="379"/>
      <point x="401" y="376"/>
      <point x="401" y="369" type="curve"/>
      <point x="378" y="223"/>
      <point x="310" y="7"/>
    </contour>
  </outline>
</glyph>
<glyph name="period" format="2">
  <advance width="130"/>
  <unicode hex="002E"/>
  <outline>
    <contour>
      <point x="85" y="27" type="curve" smooth="yes"/>
      <point x="85" y="48"/>
      <point x="74" y="62"/>
      <point x="59" y="62" type="curve" smooth="yes"/>
      <point x="44" y="62"/>
      <point x="33" y="48"/>
      <point x="33" y="27" type="curve" smooth="yes"/>
      <point x="33" y="6"/>
      <point x="44" y="-8"/>
      <point x="59" y="-8" type="curve" smooth="yes"/>
      <point x="74" y="-8"/>
      <point x="85" y="6"/>
    </contour>
  </outline>
</glyph>
<glyph name="zero" format="2">
  <advance width="384"/>
  <unicode hex="0030"/>
  <outline>
    <contour>
      <point x="165" y="-10" type="curve" smooth="yes"/>
      <point x="278" y="-10"/>
      <point x="360" y="162"/>
      <point x="360" y="353" type="curve" smooth="yes"/>
      <point x="360" y="514"/>
      <point x="299" y="619"/>
      <point x="219" y="619" type="curve" smooth="yes"/>
      <point x="106" y="619"/>
      <point x="24" y="447"/>
      <point x="24" y="255" type="curve" smooth="yes"/>
      <point x="24" y="95"/>
      <point x="85" y="-10"/>
    </contour>
    <contour>
      <point x="167" y="8" type="curve" smooth="yes"/>
      <point x="100" y="8"/>
      <point x="61" y="98"/>
      <point x="61" y="252" type="curve" smooth="yes"/>
      <point x="61" y="313"/>
      <point x="69" y="371"/>
      <point x="81" y="423" type="curve" smooth="yes"/>
      <point x="108" y="527"/>
      <point x="156" y="601"/>
      <point x="217" y="601" type="curve" smooth="yes"/>
      <point x="284" y="601"/>
      <point x="322" y="511"/>
      <point x="322" y="356" type="curve" smooth="yes"/>
      <point x="322" y="300"/>
      <point x="316" y="243"/>
      <point x="303" y="192" type="curve" smooth="yes"/>
      <point x="278" y="88"/>
      <point x="229" y="8"/>
    </contour>
  </outline>
</glyph>
<glyph name="three" format="2">
  <advance width="384"/>
  <unicode hex="0033"/>
  <outline>
    <contour>
      <point x="170" y="-90" type="curve" smooth="yes"/>
      <point x="81" y="-90"/>
      <point x="21" y="-20"/>
      <point x="2" y="80" type="curve"/>
      <point x="14" y="92" type="line"/>
      <point x="30" y="8"/>
      <point x="79" y="-72"/>
      <point x="170" y="-72" type="curve" smooth="yes"/>
      <point x="248" y="-72"/>
      <point x="293" y="8"/>
      <point x="293" y="119" type="curve" smooth="yes"/>
      <point x="293" y="208"/>
      <point x="256" y="275"/>
      <point x="168" y="275" type="curve" smooth="yes"/>
      <point x="126" y="275" type="line"/>
      <point x="129" y="292" type="line"/>
      <point x="168" y="292" type="line" smooth="yes"/>
      <point x="259" y="292"/>
      <point x="308" y="357"/>
      <point x="308" y="462" type="curve" smooth="yes"/>
      <point x="308" y="552"/>
      <point x="274" y="600"/>
      <point x="212" y="600" type="curve" smooth="yes"/>
      <point x="174" y="600"/>
      <point x="141" y="585"/>
      <point x="106" y="548" type="curve"/>
      <point x="113" y="558"/>
      <point x="120" y="568"/>
      <point x="127" y="579" type="curve"/>
      <point x="116" y="477" type="line"/>
      <point x="77" y="477" type="line"/>
      <point x="87" y="559" type="line"/>
      <point x="109" y="582"/>
      <point x="152" y="618"/>
      <point x="212" y="618" type="curve" smooth="yes"/>
      <point x="292" y="618"/>
      <point x="345" y="560"/>
      <point x="345" y="462" type="curve" smooth="yes"/>
      <point x="345" y="361"/>
      <point x="286" y="290"/>
      <point x="197" y="283" type="curve"/>
      <point x="215" y="290" type="line"/>
      <point x="214" y="282" type="line"/>
      <point x="194" y="290" type="line"/>
      <point x="297" y="275"/>
      <point x="331" y="197"/>
      <point x="331" y="117" type="curve" smooth="yes"/>
      <point x="331" y="-2"/>
      <point x="267" y="-90"/>
    </contour>
  </outline>
</glyph>
<glyph name="six" format="2">
  <advance width="384"/>
  <unicode hex="0036"/>
  <outline>
    <contour>
      <point x="189" y="-10" type="curve" smooth="yes"/>
      <point x="283" y="-10"/>
      <point x="354" y="111"/>
      <point x="354" y="251" type="curve" smooth="yes"/>
      <point x="354" y="367"/>
      <point x="303" y="458"/>
      <point x="217" y="458" type="curve" smooth="yes"/>
      <point x="155" y="458"/>
      <point x="98" y="404"/>
      <point x="61" y="301" type="curve"/>
      <point x="66" y="280" type="line"/>
      <point x="105" y="385"/>
      <point x="154" y="440"/>
      <point x="214" y="440" type="curve" smooth="yes"/>
      <point x="281" y="440"/>
      <point x="316" y="358"/>
      <point x="316" y="252" type="curve" smooth="yes"/>
      <point x="316" y="232"/>
      <point x="315" y="213"/>
      <point x="313" y="195" type="curve" smooth="yes"/>
      <point x="301" y="92"/>
      <point x="256" y="8"/>
      <point x="189" y="8" type="curve" smooth="yes"/>
      <point x="123" y="8"/>
      <point x="71" y="85"/>
      <point x="71" y="241" type="curve" smooth="yes"/>
      <point x="71" y="267"/>
      <point x="72" y="292"/>
      <point x="75" y="316" type="curve" smooth="yes"/>
      <point x="96" y="534"/>
      <point x="210" y="698"/>
      <point x="359" y="723" type="curve"/>
      <point x="359" y="740" type="line"/>
      <point x="160" y="709"/>
      <point x="34" y="470"/>
      <point x="34" y="249" type="curve" smooth="yes"/>
      <point x="34" y="80"/>
      <point x="103" y="-10"/>
    </contour>
  </outline>
</glyph>
<glyph name="at" format="2">
  <advance width="612"/>
  <unicode hex="0040"/>
  <outline>
    <contour>
      <point x="302" y="-153" type="curve" smooth="yes"/>
      <point x="371" y="-153"/>
      <point x="423" y="-128"/>
      <point x="460" y="-99" type="curve"/>
      <point x="456" y="-82" type="line"/>
      <point x="419" y="-112"/>
      <point x="373" y="-137"/>
      <point x="302" y="-137" type="curve" smooth="yes"/>
      <point x="175" y="-137"/>
      <point x="51" y="-26"/>
      <point x="51" y="224" type="curve" smooth="yes"/>
      <point x="51" y="468"/>
      <point x="179" y="657"/>
      <point x="342" y="657" type="curve" smooth="yes"/>
      <point x="479" y="657"/>
      <point x="562" y="527"/>
      <point x="562" y="350" type="curve" smooth="yes"/>
      <point x="562" y="193"/>
      <point x="503" y="65"/>
      <point x="426" y="65" type="curve" smooth="yes"/>
      <point x="395" y="65"/>
      <point x="381" y="88"/>
      <point x="381" y="123" type="curve" smooth="yes"/>
      <point x="381" y="145"/>
      <point x="383" y="158"/>
      <point x="387" y="180" type="curve" smooth="yes"/>
      <point x="447" y="468" type="line"/>
      <point x="429" y="468" type="line"/>
      <point x="402" y="393" type="line"/>
      <point x="397" y="387" type="line"/>
      <point x="348" y="140" type="line"/>
      <point x="351" y="136" type="line"/>
      <point x="351" y="91"/>
      <point x="373" y="49"/>
      <point x="424" y="49" type="curve" smooth="yes"/>
      <point x="509" y="49"/>
      <point x="586" y="177"/>
      <point x="586" y="350" type="curve" smooth="yes"/>
      <point x="586" y="537"/>
      <point x="491" y="673"/>
      <point x="342" y="673" type="curve" smooth="yes"/>
      <point x="167" y="673"/>
      <point x="26" y="477"/>
      <point x="26" y="223" type="curve" smooth="yes"/>
      <point x="26" y="-42"/>
      <point x="164" y="-153"/>
    </contour>
    <contour>
      <point x="261" y="49" type="curve" smooth="yes"/>
      <point x="304" y="49"/>
      <point x="338" y="88"/>
      <point x="372" y="173" type="curve"/>
      <point x="367" y="195" type="line"/>
      <point x="334" y="107"/>
      <point x="302" y="65"/>
      <point x="264" y="65" type="curve" smooth="yes"/>
      <point x="225" y="65"/>
      <point x="207" y="111"/>
      <point x="207" y="196" type="curve" smooth="yes"/>
      <point x="207" y="328"/>
      <point x="257" y="458"/>
      <point x="331" y="458" type="curve" smooth="yes"/>
      <point x="363" y="458"/>
      <point x="396" y="435"/>
      <point x="402" y="338" type="curve"/>
      <point x="409" y="371" type="line"/>
      <point x="402" y="442"/>
      <point x="367" y="474"/>
      <point x="328" y="474" type="curve" smooth="yes"/>
      <point x="239" y="474"/>
      <point x="173" y="335"/>
      <point x="173" y="198" type="curve" smooth="yes"/>
      <point x="173" y="103"/>
      <point x="210" y="49"/>
    </contour>
  </outline>
</glyph>
<glyph name="G" format="2">
  <advance width="499"/>
  <unicode hex="0047"/>
  <anchor x="253" y="741" name="top"/>
  <anchor x="253" y="0" name="bottom"/>
  <outline>
    <contour>
      <point x="409" y="82" type="curve"/>
      <point x="435" y="301" type="line" smooth="yes"/>
      <point x="438" y="326"/>
      <point x="458" y="332"/>
      <point x="483" y="332" type="curve" smooth="yes"/>
      <point x="486" y="332" type="line"/>
      <point x="488" y="347" type="line"/>
      <point x="345" y="347" type="line"/>
      <point x="342" y="332" type="line"/>
      <point x="352" y="332" type="line" smooth="yes"/>
      <point x="391" y="332"/>
      <point x="404" y="324"/>
      <point x="402" y="301" type="curve" smooth="yes"/>
      <point x="375" y="77" type="line"/>
      <point x="364" y="60"/>
      <point x="316" y="9"/>
      <point x="244" y="9" type="curve" smooth="yes"/>
      <point x="122" y="9"/>
      <point x="65" y="145"/>
      <point x="65" y="316" type="curve" smooth="yes"/>
      <point x="65" y="514"/>
      <point x="145" y="701"/>
      <point x="279" y="701" type="curve" smooth="yes"/>
      <point x="373" y="701"/>
      <point x="417" y="626"/>
      <point x="433" y="520" type="curve"/>
      <point x="444" y="520" type="line"/>
      <point x="467" y="710" type="line"/>
      <point x="451" y="710" type="line"/>
      <point x="429" y="573" type="line"/>
      <point x="435" y="577" type="line"/>
      <point x="418" y="652"/>
      <point x="365" y="720"/>
      <point x="280" y="720" type="curve" smooth="yes"/>
      <point x="129" y="720"/>
      <point x="27" y="533"/>
      <point x="27" y="320" type="curve" smooth="yes"/>
      <point x="27" y="137"/>
      <point x="108" y="-10"/>
      <point x="244" y="-10" type="curve" smooth="yes"/>
      <point x="324" y="-10"/>
      <point x="382" y="49"/>
    </contour>
  </outline>
</glyph>
<glyph name="V" format="2">
  <advance width="445"/>
  <unicode hex="0056"/>
  <outline>
    <contour>
      <point x="198" y="26" type="line"/>
      <point x="122" y="684" type="line"/>
      <point x="122" y="691"/>
      <point x="152" y="695"/>
      <point x="176" y="695" type="curve" smooth="yes"/>
      <point x="188" y="695" type="line"/>
      <point x="190" y="710" type="line"/>
      <point x="49" y="710" type="line"/>
      <point x="46" y="695" type="line"/>
      <point x="50" y="695" type="line"/>
      <point x="71" y="695"/>
      <point x="85" y="692"/>
      <point x="88" y="666" type="curve" smooth="yes"/>
      <point x="168" y="0" type="line"/>
      <point x="196" y="0" type="line"/>
      <point x="429" y="654" type="line" smooth="yes"/>
      <point x="441" y="687"/>
      <point x="459" y="694"/>
      <point x="479" y="695" type="curve"/>
      <point x="483" y="695" type="line"/>
      <point x="485" y="710" type="line"/>
      <point x="362" y="710" type="line"/>
      <point x="360" y="695" type="line"/>
      <point x="372" y="695" type="line" smooth="yes"/>
      <point x="399" y="695"/>
      <point x="421" y="685"/>
      <point x="421" y="674" type="curve"/>
      <point x="190" y="27" type="line"/>
    </contour>
  </outline>
</glyph>
<glyph name="bracketleft" format="2">
  <advance width="174"/>
  <unicode hex="005B"/>
  <outline>
    <contour>
      <point x="121" y="-114" type="line"/>
      <point x="30" y="-114" type="line"/>
      <point x="131" y="734" type="line"/>
      <point x="223" y="734" type="line"/>
      <point x="225" y="750" type="line"/>
      <point x="108" y="750" type="line"/>
      <point x="0" y="-130" type="line"/>
      <point x="119" y="-130" type="line"/>
    </contour>
  </outline>
</glyph>
<glyph name="underscore" format="2">
  <advance width="276"/>
  <unicode hex="005F"/>
  <outline>
    <contour>
      <point x="-34" y="-108" type="line"/>
      <point x="-35" y="-132" type="line"/>
      <point x="248" y="-132" type="line"/>
      <point x="249" y="-108" type="line"/>
    </contour>
  </outline>
</glyph>
<glyph name="a" format="2">
  <advance width="371"/>
  <unicode hex="0061"/>
  <anchor x="164" y="518" name="top"/>
  <anchor x="320" y="-10" name="right"/>
  <anchor x="193" y="0" name="bottom"/>
  <outline>
    <contour>
      <point x="301" y="-7" type="curve" smooth="yes"/>
      <point x="319" y="-7"/>
      <point x="337" y="2"/>
      <point x="345" y="11" type="curve"/>
      <point x="348" y="27" type="line"/>
      <point x="343" y="24"/>
      <point x="327" y="13"/>
      <point x="309" y="13" type="curve" smooth="yes"/>
      <point x="291" y="13"/>
      <point x="283" y="26"/>
      <point x="283" y="57" type="curve" smooth="yes"/>
      <point x="283" y="76"/>
      <point x="287" y="110"/>
      <point x="289" y="133" type="curve" smooth="yes"/>
      <point x="336" y="521" type="line"/>
      <point x="323" y="521" type="line"/>
      <point x="297" y="446" type="line"/>
      <point x="293" y="441" type="line"/>
      <point x="259" y="169" type="line"/>
      <point x="259" y="166" type="line"/>
      <point x="254" y="133"/>
      <point x="249" y="87"/>
      <point x="249" y="61" type="curve" smooth="yes"/>
      <point x="249" y="13"/>
      <point x="270" y="-7"/>
    </contour>
    <contour>
      <point x="125" y="-10" type="curve" smooth="yes"/>
      <point x="193" y="-10"/>
      <point x="235" y="76"/>
      <point x="283" y="213" type="curve"/>
      <point x="276" y="230" type="line"/>
      <point x="232" y="102"/>
      <point x="190" y="9"/>
      <point x="129" y="9" type="curve" smooth="yes"/>
      <point x="87" y="9"/>
      <point x="62" y="76"/>
      <point x="62" y="184" type="curve" smooth="yes"/>
      <point x="62" y="334"/>
      <point x="117" y="510"/>
      <point x="208" y="510" type="curve" smooth="yes"/>
      <point x="257" y="510"/>
      <point x="294" y="466"/>
      <point x="311" y="380" type="curve"/>
      <point x="319" y="399" type="line"/>
      <point x="302" y="483"/>
      <point x="261" y="528"/>
      <point x="208" y="528" type="curve" smooth="yes"/>
      <point x="96" y="528"/>
      <point x="25" y="347"/>
      <point x="25" y="186" type="curve" smooth="yes"/>
      <point x="25" y="65"/>
      <point x="63" y="-10"/>
    </contour>
  </outline>
</glyph>
<glyph name="h" format="2">
  <advance width="378"/>
  <unicode hex="0068"/>
  <anchor x="199" y="755" name="top"/>
  <anchor x="191" y="0" name="bottom"/>
  <outline>
    <contour>
      <point x="37" y="0" type="line"/>
      <point x="122" y="703" type="line" smooth="yes"/>
      <point x="124" y="723"/>
      <point x="115" y="728"/>
      <point x="89" y="733" type="curve" smooth="yes"/>
      <point x="73" y="735" type="line"/>
      <point x="74" y="750" type="line"/>
      <point x="164" y="750" type="line"/>
      <point x="71" y="0" type="line"/>
    </contour>
    <contour>
      <point x="302" y="175" type="line" smooth="yes"/>
      <point x="297" y="131"/>
      <point x="290" y="83"/>
      <point x="290" y="57" type="curve" smooth="yes"/>
      <point x="290" y="25"/>
      <point x="298" y="13"/>
      <point x="318" y="13" type="curve" smooth="yes"/>
      <point x="333" y="13"/>
      <point x="350" y="23"/>
      <point x="356" y="27" type="curve"/>
      <point x="354" y="11" type="line"/>
      <point x="346" y="2"/>
      <point x="328" y="-7"/>
      <point x="310" y="-7" type="curve" smooth="yes"/>
      <point x="279" y="-7"/>
      <point x="257" y="13"/>
      <point x="257" y="62" type="curve" smooth="yes"/>
      <point x="257" y="91"/>
      <point x="262" y="136"/>
      <point x="270" y="194" type="curve" smooth="yes"/>
      <point x="289" y="329" type="line" smooth="yes"/>
      <point x="293" y="364"/>
      <point x="298" y="395"/>
      <point x="298" y="429" type="curve" smooth="yes"/>
      <point x="298" y="482"/>
      <point x="282" y="507"/>
      <point x="249" y="507" type="curve" smooth="yes"/>
      <point x="196" y="507"/>
      <point x="149" y="425"/>
      <point x="100" y="302" type="curve"/>
      <point x="94" y="316" type="line"/>
      <point x="142" y="445"/>
      <point x="193" y="528"/>
      <point x="256" y="528" type="curve" smooth="yes"/>
      <point x="305" y="528"/>
      <point x="331" y="486"/>
      <point x="331" y="426" type="curve" smooth="yes"/>
      <point x="331" y="394"/>
      <point x="328" y="360"/>
      <point x="323" y="326" type="curve" smooth="yes"/>
    </contour>
  </outline>
</glyph>
<glyph name="i" format="2">
  <advance width="169"/>
  <unicode hex="0069"/>
  <anchor x="85" y="518" name="top"/>
  <anchor x="120" y="-10" name="right"/>
  <anchor x="83" y="-10" name="bottom"/>
  <outline>
    <contour>
      <point x="93" y="471" type="curve"/>
      <point x="59" y="193" type="line" smooth="yes"/>
      <point x="52" y="135"/>
      <point x="47" y="91"/>
      <point x="47" y="62" type="curve" smooth="yes"/>
      <point x="47" y="13"/>
      <point x="68" y="-7"/>
      <point x="100" y="-7" type="curve" smooth="yes"/>
      <point x="117" y="-7"/>
      <point x="136" y="2"/>
      <point x="143" y="11" type="curve"/>
      <point x="146" y="27" type="line"/>
      <point x="140" y="23"/>
      <point x="123" y="13"/>
      <point x="108" y="13" type="curve" smooth="yes"/>
      <point x="88" y="13"/>
      <point x="80" y="25"/>
      <point x="80" y="57" type="curve" smooth="yes"/>
      <point x="80" y="83"/>
      <point x="86" y="130"/>
      <point x="91" y="174" type="curve" smooth="yes"/>
      <point x="134" y="518" type="line"/>
      <point x="45" y="518" type="line"/>
      <point x="43" y="503" type="line"/>
      <point x="59" y="501" type="line" smooth="yes"/>
      <point x="85" y="496"/>
      <point x="96" y="491"/>
    </contour>
    <contour>
      <point x="130" y="658" type="curve" smooth="yes"/>
      <point x="145" y="658"/>
      <point x="156" y="672"/>
      <point x="156" y="694" type="curve" smooth="yes"/>
      <point x="156" y="716"/>
      <point x="145" y="729"/>
      <point x="130" y="729" type="curve" smooth="yes"/>
      <point x="116" y="729"/>
      <point x="104" y="716"/>
      <point x="104" y="694" type="curve" smooth="yes"/>
      <point x="104" y="672"/>
      <point x="116" y="658"/>
    </contour>
  </outline>
</glyph>
<glyph name="j" format="2">
  <advance width="161"/>
  <unicode hex="006A"/>
  <outline>
    <contour>
      <point x="31" y="-94" type="line" smooth="yes"/>
      <point x="21" y="-180"/>
      <point x="1" y="-215"/>
      <point x="-35" y="-215" type="curve" smooth="yes"/>
      <point x="-58" y="-215"/>
      <point x="-74" y="-207"/>
      <point x="-84" y="-200" type="curve"/>
      <point x="-86" y="-218" type="line"/>
      <point x="-77" y="-223"/>
      <point x="-58" y="-233"/>
      <point x="-34" y="-233" type="curve" smooth="yes"/>
      <point x="12" y="-233"/>
      <point x="53" y="-204"/>
      <point x="66" y="-92" type="curve" smooth="yes"/>
      <point x="134" y="518" type="line"/>
      <point x="45" y="518" type="line"/>
      <point x="43" y="503" type="line"/>
      <point x="59" y="501" type="line" smooth="yes"/>
      <point x="85" y="496"/>
      <point x="95" y="491"/>
      <point x="92" y="471" type="curve" smooth="yes"/>
    </contour>
    <contour>
      <point x="130" y="658" type="curve" smooth="yes"/>
      <point x="145" y="658"/>
      <point x="156" y="672"/>
      <point x="156" y="694" type="curve" smooth="yes"/>
      <point x="156" y="716"/>
      <point x="145" y="729"/>
      <point x="130" y="729" type="curve" smooth="yes"/>
      <point x="115" y="729"/>
      <point x="105" y="716"/>
      <point x="105" y="694" type="curve" smooth="yes"/>
      <point x="105" y="672"/>
      <point x="115" y="658"/>
    </contour>
  </outline>
</glyph>
<glyph name="x" format="2">
  <advance width="332"/>
  <unicode hex="0078"/>
  <outline>
    <contour>
      <point x="181" y="263" type="line"/>
      <point x="329" y="513" type="line"/>
      <point x="329" y="518" type="line"/>
      <point x="297" y="518" type="line"/>
      <point x="177" y="283" type="line"/>
    </contour>
    <contour>
      <point x="5" y="0" type="line"/>
      <point x="38" y="0" type="line"/>
      <point x="166" y="251" type="line"/>
      <point x="161" y="272" type="line"/>
      <point x="5" y="5" type="line"/>
    </contour>
    <contour>
      <point x="272" y="-7" type="curve" smooth="yes"/>
      <point x="287" y="-7"/>
      <point x="301" y="2"/>
      <point x="310" y="12" type="curve"/>
      <point x="311" y="27" type="line"/>
      <point x="305" y="24"/>
      <point x="294" y="13"/>
      <point x="280" y="13" type="curve" smooth="yes"/>
      <point x="260" y="13"/>
      <point x="253" y="35"/>
      <point x="235" y="96" type="curve" smooth="yes"/>
      <point x="120" y="518" type="line"/>
      <point x="52" y="518" type="line"/>
      <point x="50" y="503" type="line"/>
      <point x="61" y="501" type="line" smooth="yes"/>
      <point x="89" y="497"/>
      <point x="93" y="488"/>
      <point x="100" y="465" type="curve" smooth="yes"/>
      <point x="201" y="99" type="line" smooth="yes"/>
      <point x="224" y="15"/>
      <point x="238" y="-7"/>
    </contour>
  </outline>
</glyph>
<glyph name="y" format="2">
  <advance width="322"/>
  <unicode hex="0079"/>
  <anchor x="180" y="518" name="top"/>
  <anchor x="187" y="-211" name="bottom"/>
  <outline>
    <contour>
      <point x="127" y="-46" type="line"/>
      <point x="65" y="460" type="line" smooth="yes"/>
      <point x="62" y="487"/>
      <point x="57" y="495"/>
      <point x="24" y="501" type="curve" smooth="yes"/>
      <point x="14" y="503" type="line"/>
      <point x="15" y="518" type="line"/>
      <point x="92" y="518" type="line"/>
      <point x="154" y="-3" type="line"/>
      <point x="141" y="-22" type="line"/>
    </contour>
    <contour>
      <point x="147" y="-4" type="line"/>
      <point x="212" y="140"/>
      <point x="283" y="322"/>
      <point x="283" y="518" type="curve"/>
      <point x="318" y="518" type="line"/>
      <point x="318" y="518" type="line"/>
      <point x="301" y="304"/>
      <point x="227" y="138"/>
      <point x="161" y="-2" type="curve" smooth="yes"/>
      <point x="92" y="-150"/>
      <point x="32" y="-230"/>
      <point x="-21" y="-230" type="curve" smooth="yes"/>
      <point x="-46" y="-230"/>
      <point x="-61" y="-220"/>
      <point x="-66" y="-214" type="curve"/>
      <point x="-59" y="-167" type="line"/>
      <point x="-57" y="-169"/>
      <point x="-40" y="-186"/>
      <point x="-11" y="-186" type="curve" smooth="yes"/>
      <point x="38" y="-186"/>
      <point x="79" y="-142"/>
      <point x="137" y="-17" type="curve"/>
    </contour>
  </outline>
</glyph>
<glyph name="z" format="2">
  <advance width="337"/>
  <unicode hex="007A"/>
  <anchor x="173" y="518" name="top"/>
  <anchor x="193" y="0" name="bottom"/>
  <outline>
    <contour>
      <point x="224" y="-10" type="curve" smooth="yes"/>
      <point x="279" y="-10"/>
      <point x="313" y="48"/>
      <point x="315" y="160" type="curve"/>
      <point x="305" y="165" type="line"/>
      <point x="298" y="76"/>
      <point x="266" y="34"/>
      <point x="223" y="34" type="curve" smooth="yes"/>
      <point x="195" y="34"/>
      <point x="164" y="40"/>
      <point x="85" y="105" type="curve"/>
      <point x="70" y="81" type="line"/>
      <point x="150" y="11"/>
      <point x="181" y="-10"/>
    </contour>
    <contour>
      <point x="25" y="0" type="line"/>
      <point x="327" y="499" type="line"/>
      <point x="329" y="518" type="line"/>
      <point x="78" y="518" type="line"/>
      <point x="59" y="370" type="line"/>
      <point x="70" y="370" type="line"/>
      <point x="87" y="444" type="line" smooth="yes"/>
      <point x="95" y="473"/>
      <point x="107" y="480"/>
      <point x="149" y="480" type="curve" smooth="yes"/>
      <point x="306" y="480" type="line"/>
      <point x="308" y="501" type="line"/>
      <point x="8" y="5" type="line"/>
      <point x="8" y="0" type="line"/>
    </contour>
  </outline>
</glyph>
<glyph name="dieresis" format="2">
  <advance width="343"/>
  <unicode hex="00A8"/>
  <anchor x="165" y="526" name="_top"/>
  <outline>
    <contour>
      <point x="127" y="657" type="curve" smooth="yes"/>
      <point x="142" y="657"/>
      <point x="153" y="670"/>
      <point x="153" y="692" type="curve" smooth="yes"/>
      <point x="153" y="714"/>
      <point x="142" y="728"/>
      <point x="127" y="728" type="curve" smooth="yes"/>
      <point x="112" y="728"/>
      <point x="102" y="714"/>
      <point x="102" y="692" type="curve" smooth="yes"/>
      <point x="102" y="670"/>
      <point x="112" y="657"/>
    </contour>
    <contour>
      <point x="241" y="657" type="curve" smooth="yes"/>
      <point x="256" y="657"/>
      <point x="267" y="670"/>
      <point x="267" y="692" type="curve" smooth="yes"/>
      <point x="267" y="714"/>
      <point x="256" y="728"/>
      <point x="241" y="728" type="curve" smooth="yes"/>
      <point x="226" y="728"/>
      <point x="215" y="714"/>
      <point x="215" y="692" type="curve" smooth="yes"/>
      <point x="215" y="670"/>
      <point x="226" y="657"/>
    </contour>
  </outline>
</glyph>
<glyph name="registered" format="2">
  <advance width="576"/>
  <unicode hex="00AE"/>
  <outline>
    <contour>
      <point x="291" y="-28" type="curve" smooth="yes"/>
      <point x="144" y="-28"/>
      <point x="31" y="138"/>
      <point x="31" y="355" type="curve" smooth="yes"/>
      <point x="31" y="572"/>
      <point x="144" y="738"/>
      <point x="291" y="738" type="curve" smooth="yes"/>
      <point x="439" y="738"/>
      <point x="551" y="572"/>
      <point x="551" y="355" type="curve" smooth="yes"/>
      <point x="551" y="138"/>
      <point x="439" y="-28"/>
    </contour>
    <contour>
      <point x="187" y="153" type="line"/>
      <point x="287" y="153" type="line"/>
      <point x="287" y="167" type="line"/>
      <point x="279" y="167" type="line" smooth="yes"/>
      <point x="267" y="167"/>
      <point x="253" y="168"/>
      <point x="253" y="174" type="curve" smooth="yes"/>
      <point x="253" y="340" type="line"/>
      <point x="293" y="340" type="line" smooth="yes"/>
      <point x="352" y="340"/>
      <point x="396" y="384"/>
      <point x="396" y="453" type="curve" smooth="yes"/>
      <point x="396" y="518"/>
      <point x="356" y="557"/>
      <point x="293" y="557" type="curve" smooth="yes"/>
      <point x="187" y="557" type="line"/>
      <point x="187" y="543" type="line"/>
      <point x="191" y="543" type="line" smooth="yes"/>
      <point x="208" y="543"/>
      <point x="220" y="540"/>
      <point x="220" y="528" type="curve" smooth="yes"/>
      <point x="220" y="182" type="line" smooth="yes"/>
      <point x="220" y="170"/>
      <point x="208" y="167"/>
      <point x="191" y="167" type="curve" smooth="yes"/>
      <point x="187" y="167" type="line"/>
    </contour>
    <contour>
      <point x="293" y="541" type="line" smooth="yes"/>
      <point x="339" y="541"/>
      <point x="362" y="515"/>
      <point x="362" y="453" type="curve" smooth="yes"/>
      <point x="362" y="390"/>
      <point x="339" y="356"/>
      <point x="291" y="356" type="curve" smooth="yes"/>
      <point x="253" y="356" type="line"/>
      <point x="253" y="541" type="line"/>
    </contour>
    <contour>
      <point x="291" y="-10" type="curve" smooth="yes"/>
      <point x="433" y="-10"/>
      <point x="535" y="148"/>
      <point x="535" y="355" type="curve" smooth="yes"/>
      <point x="535" y="562"/>
      <point x="433" y="720"/>
      <point x="291" y="720" type="curve" smooth="yes"/>
      <point x="150" y="720"/>
      <point x="47" y="562"/>
      <point x="47" y="355" type="curve" smooth="yes"/>
      <point x="47" y="148"/>
      <point x="150" y="-10"/>
    </contour>
    <contour>
      <point x="295" y="344" type="line"/>
      <point x="363" y="152" type="line"/>
      <point x="415" y="152" type="line"/>
      <point x="415" y="166" type="line"/>
      <point x="409" y="166" type="line" smooth="yes"/>
      <point x="398" y="166"/>
      <point x="393" y="169"/>
      <point x="389" y="182" type="curve" smooth="yes"/>
      <point x="327" y="351" type="line"/>
    </contour>
  </outline>
</glyph>
<glyph name="paragraph" format="2">
  <advance width="375"/>
  <unicode hex="00B6"/>
  <outline>
    <contour>
      <point x="383" y="710" type="line"/>
      <point x="380" y="695" type="line"/>
      <point x="372" y="695" type="line"/>
      <point x="342" y="695"/>
      <point x="323" y="692"/>
      <point x="320" y="670" type="curve" smooth="yes"/>
      <point x="239" y="0" type="line"/>
      <point x="222" y="0" type="line"/>
      <point x="308" y="710" type="line"/>
    </contour>
    <contour>
      <point x="316" y="710" type="line"/>
      <point x="314" y="692" type="line"/>
      <point x="219" y="692" type="line"/>
      <point x="221" y="710" type="line"/>
    </contour>
    <contour>
      <point x="148" y="0" type="line"/>
      <point x="131" y="0" type="line"/>
      <point x="173" y="354" type="line"/>
      <point x="163" y="354" type="line" smooth="yes"/>
      <point x="99" y="354"/>
      <point x="52" y="407"/>
      <point x="52" y="512" type="curve" smooth="yes"/>
      <point x="52" y="624"/>
      <point x="105" y="710"/>
      <point x="212" y="710" type="curve" smooth="yes"/>
      <point x="234" y="710" type="line"/>
    </contour>
  </outline>
</glyph>
<glyph name="cedilla" format="2">
  <advance width="411"/>
  <unicode hex="00B8"/>
  <anchor x="214" y="34" name="_bottom"/>
  <outline>
    <contour>
      <point x="178" y="-236" type="curve" smooth="yes"/>
      <point x="219" y="-236"/>
      <point x="253" y="-197"/>
      <point x="253" y="-148" type="curve" smooth="yes"/>
      <point x="253" y="-94"/>
      <point x="221" y="-66"/>
      <point x="173" y="-69" type="curve"/>
      <point x="174" y="-76" type="line"/>
      <point x="212" y="4" type="line"/>
      <point x="195" y="4" type="line"/>
      <point x="156" y="-86" type="line"/>
      <point x="164" y="-86" type="line" smooth="yes"/>
      <point x="202" y="-86"/>
      <point x="221" y="-113"/>
      <point x="221" y="-149" type="curve" smooth="yes"/>
      <point x="221" y="-191"/>
      <point x="203" y="-220"/>
      <point x="173" y="-220" type="curve" smooth="yes"/>
      <point x="144" y="-220"/>
      <point x="128" y="-200"/>
      <point x="115" y="-173" type="curve"/>
      <point x="106" y="-184" type="line"/>
      <point x="121" y="-215"/>
      <point x="141" y="-236"/>
    </contour>
  </outline>
</glyph>
<glyph name="multiply" format="2">
  <advance width="384"/>
  <unicode hex="00D7"/>
  <outline>
    <contour>
      <point x="66" y="164" type="line"/>
      <point x="341" y="504" type="line"/>
      <point x="333" y="518" type="line"/>
      <point x="58" y="177" type="line"/>
    </contour>
    <contour>
      <point x="292" y="165" type="line"/>
      <point x="301" y="176" type="line"/>
      <point x="108" y="519" type="line"/>
      <point x="98" y="507" type="line"/>
    </contour>
  </outline>
</glyph>
<glyph name="Thorn" format="2">
  <advance width="400"/>
  <unicode hex="00DE"/>
  <outline>
    <contour>
      <point x="129" y="544" type="line"/>
      <point x="211" y="544" type="line" smooth="yes"/>
      <point x="300" y="544"/>
      <point x="337" y="486"/>
      <point x="337" y="390" type="curve" smooth="yes"/>
      <point x="337" y="281"/>
      <point x="292" y="187"/>
      <point x="178" y="187" type="curve" smooth="yes"/>
      <point x="90" y="187" type="line"/>
      <point x="90" y="169" type="line"/>
      <point x="177" y="169" type="line" smooth="yes"/>
      <point x="314" y="169"/>
      <point x="375" y="274"/>
      <point x="375" y="389" type="curve" smooth="yes"/>
      <point x="375" y="494"/>
      <point x="321" y="562"/>
      <point x="210" y="562" type="curve" smooth="yes"/>
      <point x="129" y="562" type="line"/>
    </contour>
    <contour>
      <point x="49" y="42" type="line" smooth="yes"/>
      <point x="47" y="21"/>
      <point x="23" y="15"/>
      <point x="-6" y="15" type="curve" smooth="yes"/>
      <point x="-12" y="15" type="line"/>
      <point x="-15" y="0" type="line"/>
      <point x="141" y="0" type="line"/>
      <point x="143" y="15" type="line"/>
      <point x="136" y="15" type="line" smooth="yes"/>
      <point x="112" y="15"/>
      <point x="82" y="19"/>
      <point x="83" y="27" type="curve" smooth="yes"/>
      <point x="162" y="681" type="line" smooth="yes"/>
      <point x="163" y="691"/>
      <point x="192" y="695"/>
      <point x="216" y="695" type="curve" smooth="yes"/>
      <point x="222" y="695" type="line"/>
      <point x="224" y="710" type="line"/>
      <point x="71" y="710" type="line"/>
      <point x="69" y="695" type="line"/>
      <point x="76" y="695" type="line" smooth="yes"/>
      <point x="104" y="695"/>
      <point x="128" y="689"/>
      <point x="125" y="668" type="curve" smooth="yes"/>
    </contour>
  </outline>
</glyph>
<glyph name="icircumflex" format="2">
  <advance width="169"/>
  <unicode hex="00EE"/>
  <outline>
    <contour>
      <point x="140" y="749" type="line"/>
      <point x="192" y="608" type="line"/>
      <point x="191" y="603" type="line"/>
      <point x="181" y="603" type="line"/>
      <point x="108" y="730" type="line"/>
      <point x="132" y="730" type="line"/>
      <point x="29" y="603" type="line"/>
      <point x="16" y="603" type="line"/>
      <point x="17" y="608" type="line"/>
      <point x="103" y="749" type="line"/>
    </contour>
    <component base="dotlessi"/>
  </outline>
</glyph>
<glyph name="eth" format="2">
  <advance width="367"/>
  <unicode hex="00F0"/>
  <outline>
    <contour>
      <point x="170" y="-10" type="curve" smooth="yes"/>
      <point x="275" y="-10"/>
      <point x="354" y="145"/>
      <point x="354" y="359" type="curve" smooth="yes"/>
      <point x="354" y="523"/>
      <point x="302" y="673"/>
      <point x="153" y="758" type="curve"/>
      <point x="145" y="745" type="line"/>
      <point x="275" y="665"/>
      <point x="317" y="540"/>
      <point x="317" y="371" type="curve" smooth="yes"/>
      <point x="317" y="316"/>
      <point x="313" y="263"/>
      <point x="305" y="216" type="curve" smooth="yes"/>
      <point x="285" y="92"/>
      <point x="236" y="7"/>
      <point x="170" y="7" type="curve" smooth="yes"/>
      <point x="112" y="7"/>
      <point x="64" y="71"/>
      <point x="64" y="217" type="curve" smooth="yes"/>
      <point x="64" y="245"/>
      <point x="66" y="274"/>
      <point x="71" y="300" type="curve" smooth="yes"/>
      <point x="86" y="421"/>
      <point x="136" y="511"/>
      <point x="205" y="511" type="curve" smooth="yes"/>
      <point x="261" y="511"/>
      <point x="307" y="455"/>
      <point x="322" y="377" type="curve"/>
      <point x="330" y="385" type="line"/>
      <point x="316" y="462"/>
      <point x="270" y="528"/>
      <point x="205" y="528" type="curve" smooth="yes"/>
      <point x="101" y="528"/>
      <point x="27" y="380"/>
      <point x="27" y="220" type="curve" smooth="yes"/>
      <point x="27" y="79"/>
      <point x="89" y="-10"/>
    </contour>
    <contour>
      <point x="101" y="600" type="line"/>
      <point x="105" y="584" type="line"/>
      <point x="362" y="704" type="line"/>
      <point x="358" y="720" type="line"/>
    </contour>
  </outline>
</glyph>
<glyph name="oslash" format="2">
  <advance width="367"/>
  <unicode hex="00F8"/>
  <anchor x="181" y="518" name="top"/>
  <outline>
    <contour>
      <point x="168" y="-10" type="curve" smooth="yes"/>
      <point x="274" y="-10"/>
      <point x="346" y="141"/>
      <point x="346" y="296" type="curve" smooth="yes"/>
      <point x="346" y="426"/>
      <point x="290" y="528"/>
      <point x="205" y="528" type="curve" smooth="yes"/>
      <point x="100" y="528"/>
      <point x="27" y="376"/>
      <point x="27" y="222" type="curve" smooth="yes"/>
      <point x="27" y="92"/>
      <point x="84" y="-10"/>
    </contour>
    <contour>
      <point x="3" y="-10" type="line"/>
      <point x="22" y="-10" type="line"/>
      <point x="372" y="519" type="line"/>
      <point x="352" y="519" type="line"/>
    </contour>
    <contour>
      <point x="168" y="7" type="curve"/>
      <point x="101" y="7"/>
      <point x="64" y="94"/>
      <point x="64" y="218" type="curve" smooth="yes"/>
      <point x="64" y="269"/>
      <point x="69" y="322"/>
      <point x="82" y="367" type="curve" smooth="yes"/>
      <point x="104" y="449"/>
      <point x="146" y="511"/>
      <point x="205" y="511" type="curve"/>
      <point x="272" y="511"/>
      <point x="310" y="424"/>
      <point x="310" y="300" type="curve" smooth="yes"/>
      <point x="310" y="249"/>
      <point x="304" y="196"/>
      <point x="292" y="151" type="curve" smooth="yes"/>
      <point x="269" y="69"/>
      <point x="228" y="7"/>
    </contour>
  </outline>
</glyph>
<glyph name="thorn" format="2">
  <advance width="380"/>
  <unicode hex="00FE"/>
  <outline>
    <contour>
      <point x="-45" y="-223" type="line"/>
      <point x="108" y="-223" type="line"/>
      <point x="111" y="-208" type="line"/>
      <point x="96" y="-208" type="line" smooth="yes"/>
      <point x="82" y="-208"/>
      <point x="46" y="-205"/>
      <point x="47" y="-197" type="curve"/>
      <point x="161" y="750" type="line"/>
      <point x="72" y="750" type="line"/>
      <point x="70" y="735" type="line"/>
      <point x="87" y="732" type="line" smooth="yes"/>
      <point x="113" y="728"/>
      <point x="122" y="723"/>
      <point x="119" y="703" type="curve" smooth="yes"/>
      <point x="14" y="-183" type="line" smooth="yes"/>
      <point x="12" y="-203"/>
      <point x="-10" y="-208"/>
      <point x="-42" y="-208" type="curve"/>
      <point x="-43" y="-208" type="line"/>
    </contour>
    <contour>
      <point x="170" y="-10" type="curve" smooth="yes"/>
      <point x="287" y="-10"/>
      <point x="358" y="153"/>
      <point x="358" y="327" type="curve" smooth="yes"/>
      <point x="358" y="441"/>
      <point x="324" y="528"/>
      <point x="253" y="528" type="curve" smooth="yes"/>
      <point x="184" y="528"/>
      <point x="137" y="447"/>
      <point x="91" y="308" type="curve"/>
      <point x="97" y="290" type="line"/>
      <point x="141" y="422"/>
      <point x="187" y="510"/>
      <point x="248" y="510" type="curve" smooth="yes"/>
      <point x="300" y="510"/>
      <point x="321" y="433"/>
      <point x="321" y="329" type="curve" smooth="yes"/>
      <point x="321" y="163"/>
      <point x="267" y="7"/>
      <point x="171" y="7" type="curve" smooth="yes"/>
      <point x="123" y="7"/>
      <point x="86" y="48"/>
      <point x="67" y="93" type="curve"/>
      <point x="56" y="76" type="line"/>
      <point x="80" y="28"/>
      <point x="120" y="-10"/>
    </contour>
  </outline>
</glyph>
<glyph name="dcroat" format="2">
  <advance width="386"/>
  <unicode hex="0111"/>
  <outline>
    <contour>
      <point x="133" y="-10" type="curve" smooth="yes"/>
      <point x="202" y="-10"/>
      <point x="248" y="76"/>
      <point x="292" y="211" type="curve"/>
      <point x="286" y="228" type="line"/>
      <point x="243" y="103"/>
      <point x="199" y="9"/>
      <point x="136" y="9" type="curve" smooth="yes"/>
      <point x="84" y="9"/>
      <point x="62" y="88"/>
      <point x="62" y="186" type="curve" smooth="yes"/>
      <point x="62" y="345"/>
      <point x="117" y="510"/>
      <point x="215" y="510" type="curve" smooth="yes"/>
      <point x="266" y="510"/>
      <point x="306" y="464"/>
      <point x="319" y="380" type="curve"/>
      <point x="329" y="399" type="line"/>
      <point x="315" y="480"/>
      <point x="270" y="528"/>
      <point x="215" y="528" type="curve" smooth="yes"/>
      <point x="97" y="528"/>
      <point x="25" y="356"/>
      <point x="25" y="188" type="curve" smooth="yes"/>
      <point x="25" y="76"/>
      <point x="60" y="-10"/>
    </contour>
    <contour>
      <point x="315" y="-7" type="curve" smooth="yes"/>
      <point x="333" y="-7"/>
      <point x="351" y="2"/>
      <point x="359" y="11" type="curve"/>
      <point x="361" y="27" type="line"/>
      <point x="355" y="23"/>
      <point x="338" y="13"/>
      <point x="323" y="13" type="curve" smooth="yes"/>
      <point x="303" y="13"/>
      <point x="295" y="25"/>
      <point x="295" y="57" type="curve" smooth="yes"/>
      <point x="295" y="83"/>
      <point x="301" y="130"/>
      <point x="307" y="174" type="curve"/>
      <point x="377" y="750" type="line"/>
      <point x="343" y="750" type="line"/>
      <point x="271" y="171" type="line"/>
      <point x="272" y="168" type="line"/>
      <point x="267" y="123"/>
      <point x="263" y="88"/>
      <point x="263" y="62" type="curve" smooth="yes"/>
      <point x="263" y="13"/>
      <point x="283" y="-7"/>
    </contour>
    <contour>
      <point x="197" y="643" type="line"/>
      <point x="195" y="627" type="line"/>
      <point x="419" y="627" type="line"/>
      <point x="421" y="643" type="line"/>
    </contour>
  </outline>
</glyph>
<glyph name="hbar" format="2">
  <advance width="378"/>
  <unicode hex="0127"/>
  <outline>
    <contour>
      <point x="270" y="194" type="line" smooth="yes"/>
      <point x="262" y="136"/>
      <point x="257" y="91"/>
      <point x="257" y="62" type="curve" smooth="yes"/>
      <point x="257" y="13"/>
      <point x="279" y="-7"/>
      <point x="310" y="-7" type="curve" smooth="yes"/>
      <point x="328" y="-7"/>
      <point x="346" y="2"/>
      <point x="354" y="11" type="curve"/>
      <point x="356" y="27" type="line"/>
      <point x="350" y="23"/>
      <point x="333" y="13"/>
      <point x="318" y="13" type="curve" smooth="yes"/>
      <point x="298" y="13"/>
      <point x="290" y="25"/>
      <point x="290" y="57" type="curve" smooth="yes"/>
      <point x="290" y="83"/>
      <point x="297" y="131"/>
      <point x="302" y="175" type="curve" smooth="yes"/>
      <point x="323" y="326" type="line" smooth="yes"/>
      <point x="328" y="360"/>
      <point x="331" y="394"/>
      <point x="331" y="426" type="curve" smooth="yes"/>
      <point x="331" y="486"/>
      <point x="305" y="528"/>
      <point x="256" y="528" type="curve" smooth="yes"/>
      <point x="193" y="528"/>
      <point x="142" y="445"/>
      <point x="94" y="316" type="curve"/>
      <point x="100" y="302" type="line"/>
      <point x="149" y="425"/>
      <point x="196" y="507"/>
      <point x="249" y="507" type="curve" smooth="yes"/>
      <point x="282" y="507"/>
      <point x="298" y="482"/>
      <point x="298" y="429" type="curve" smooth="yes"/>
      <point x="298" y="395"/>
      <point x="293" y="364"/>
      <point x="289" y="329" type="curve" smooth="yes"/>
    </contour>
    <contour>
      <point x="37" y="0" type="line"/>
      <point x="71" y="0" type="line"/>
      <point x="164" y="750" type="line"/>
      <point x="129" y="750" type="line"/>
    </contour>
    <contour>
      <point x="281" y="627" type="line"/>
      <point x="284" y="643" type="line"/>
      <point x="59" y="643" type="line"/>
      <point x="57" y="627" type="line"/>
    </contour>
  </outline>
</glyph>
<glyph name="itilde" format="2">
  <advance width="168"/>
  <unicode hex="0129"/>
  <outline>
    <contour>
      <point x="146" y="642" type="curve" smooth="yes"/>
      <point x="172" y="642"/>
      <point x="190" y="671"/>
      <point x="206" y="728" type="curve"/>
      <point x="194" y="736" type="line"/>
      <point x="182" y="696"/>
      <point x="172" y="680"/>
      <point x="154" y="680" type="curve" smooth="yes"/>
      <point x="129" y="680"/>
      <point x="109" y="733"/>
      <point x="76" y="733" type="curve" smooth="yes"/>
      <point x="49" y="733"/>
      <point x="30" y="703"/>
      <point x="16" y="644" type="curve"/>
      <point x="28" y="637" type="line"/>
      <point x="37" y="676"/>
      <point x="49" y="696"/>
      <point x="67" y="696" type="curve" smooth="yes"/>
      <point x="92" y="696"/>
      <point x="112" y="642"/>
    </contour>
    <component base="dotlessi"/>
  </outline>
</glyph>
<glyph name="Lslash" format="2">
  <advance width="385"/>
  <unicode hex="0141"/>
  <outline>
    <contour>
      <point x="14" y="238" type="line"/>
      <point x="274" y="472" type="line"/>
      <point x="277" y="497" type="line"/>
      <point x="18" y="262" type="line"/>
    </contour>
    <component base="L"/>
  </outline>
</glyph>
<glyph name="lslash" format="2">
  <advance width="175"/>
  <unicode hex="0142"/>
  <outline>
    <contour>
      <point x="11" y="263" type="line"/>
      <point x="200" y="493" type="line"/>
      <point x="204" y="521" type="line"/>
      <point x="15" y="291" type="line"/>
    </contour>
    <component base="l" xOffset="6"/>
  </outline>
</glyph>
<glyph name="Tbar" format="2">
  <advance width="425"/>
  <unicode hex="0166"/>
  <outline>
    <contour>
      <point x="86" y="370" type="line"/>
      <point x="84" y="353" type="line"/>
      <point x="339" y="353" type="line"/>
      <point x="342" y="370" type="line"/>
    </contour>
    <component base="T"/>
  </outline>
</glyph>
<glyph name="Schwa" format="2">
  <advance width="464"/>
  <unicode hex="018F"/>
  <outline>
    <contour>
      <point x="210" y="-10" type="curve" smooth="yes"/>
      <point x="357" y="-10"/>
      <point x="445" y="204"/>
      <point x="445" y="415" type="curve" smooth="yes"/>
      <point x="445" y="614"/>
      <point x="363" y="720"/>
      <point x="250" y="720" type="curve" smooth="yes"/>
      <point x="161" y="720"/>
      <point x="97" y="660"/>
      <point x="56" y="567" type="curve"/>
      <point x="67" y="551" type="line"/>
      <point x="103" y="639"/>
      <point x="163" y="701"/>
      <point x="249" y="701" type="curve" smooth="yes"/>
      <point x="343" y="701"/>
      <point x="407" y="619"/>
      <point x="407" y="417" type="curve" smooth="yes"/>
      <point x="407" y="206"/>
      <point x="340" y="9"/>
      <point x="211" y="9" type="curve" smooth="yes"/>
      <point x="117" y="9"/>
      <point x="65" y="80"/>
      <point x="65" y="254" type="curve" smooth="yes"/>
      <point x="65" y="286"/>
      <point x="67" y="319"/>
      <point x="71" y="354" type="curve"/>
      <point x="54" y="349" type="line"/>
      <point x="421" y="349" type="line"/>
      <point x="424" y="367" type="line"/>
      <point x="36" y="367" type="line"/>
      <point x="32" y="327"/>
      <point x="30" y="290"/>
      <point x="30" y="256" type="curve" smooth="yes"/>
      <point x="30" y="81"/>
      <point x="98" y="-10"/>
    </contour>
  </outline>
</glyph>
<glyph name="ohorn" format="2">
  <advance width="371"/>
  <unicode hex="01A1"/>
  <anchor x="166" y="518" name="top"/>
  <outline>
    <contour>
      <point x="168" y="-10" type="curve" smooth="yes"/>
      <point x="274" y="-10"/>
      <point x="346" y="141"/>
      <point x="346" y="296" type="curve" smooth="yes"/>
      <point x="346" y="395"/>
      <point x="313" y="474"/>
      <point x="257" y="509" type="curve"/>
      <point x="267" y="490" type="line"/>
      <point x="271" y="508" type="line"/>
      <point x="248" y="509" type="line"/>
      <point x="263" y="502"/>
      <point x="274" y="499"/>
      <point x="289" y="499" type="curve" smooth="yes"/>
      <point x="347" y="499"/>
      <point x="388" y="545"/>
      <point x="406" y="660" type="curve"/>
      <point x="374" y="660" type="line"/>
      <point x="358" y="562"/>
      <point x="334" y="516"/>
      <point x="286" y="516" type="curve" smooth="yes"/>
      <point x="261" y="516"/>
      <point x="240" y="528"/>
      <point x="205" y="528" type="curve" smooth="yes"/>
      <point x="100" y="528"/>
      <point x="27" y="376"/>
      <point x="27" y="222" type="curve" smooth="yes"/>
      <point x="27" y="92"/>
      <point x="84" y="-10"/>
    </contour>
    <contour>
      <point x="168" y="7" type="curve"/>
      <point x="102" y="7"/>
      <point x="64" y="94"/>
      <point x="64" y="218" type="curve" smooth="yes"/>
      <point x="64" y="269"/>
      <point x="70" y="322"/>
      <point x="82" y="367" type="curve" smooth="yes"/>
      <point x="105" y="449"/>
      <point x="146" y="511"/>
      <point x="205" y="511" type="curve"/>
      <point x="271" y="511"/>
      <point x="309" y="424"/>
      <point x="309" y="300" type="curve" smooth="yes"/>
      <point x="309" y="249"/>
      <point x="303" y="196"/>
      <point x="291" y="151" type="curve" smooth="yes"/>
      <point x="268" y="69"/>
      <point x="227" y="7"/>
    </contour>
  </outline>
</glyph>
<glyph name="oogonek" format="2">
  <advance width="367"/>
  <unicode hex="01EB"/>
  <outline>
    <contour>
      <point x="170" y="-233" type="curve" smooth="yes"/>
      <point x="196" y="-233"/>
      <point x="217" y="-217"/>
      <point x="234" y="-190" type="curve"/>
      <point x="228" y="-178" type="line"/>
      <point x="212" y="-201"/>
      <point x="196" y="-216"/>
      <point x="176" y="-216" type="curve" smooth="yes"/>
      <point x="153" y="-216"/>
      <point x="139" y="-195"/>
      <point x="139" y="-153" type="curve" smooth="yes"/>
      <point x="139" y="-64"/>
      <point x="206" y="-36"/>
      <point x="273" y="54" type="curve" smooth="yes"/>
      <point x="319" y="112"/>
      <point x="346" y="203"/>
      <point x="346" y="296" type="curve" smooth="yes"/>
      <point x="346" y="426"/>
      <point x="290" y="528"/>
      <point x="205" y="528" type="curve" smooth="yes"/>
      <point x="100" y="528"/>
      <point x="27" y="376"/>
      <point x="27" y="222" type="curve" smooth="yes"/>
      <point x="27" y="92"/>
      <point x="84" y="-10"/>
      <point x="168" y="-10" type="curve" smooth="yes"/>
      <point x="190" y="-10"/>
      <point x="211" y="-3"/>
      <point x="230" y="10" type="curve"/>
      <point x="228" y="17" type="line"/>
      <point x="168" y="-39"/>
      <point x="104" y="-77"/>
      <point x="104" y="-152" type="curve" smooth="yes"/>
      <point x="104" y="-201"/>
      <point x="129" y="-233"/>
    </contour>
    <contour>
      <point x="168" y="7" type="curve"/>
      <point x="102" y="7"/>
      <point x="64" y="94"/>
      <point x="64" y="218" type="curve" smooth="yes"/>
      <point x="64" y="269"/>
      <point x="70" y="322"/>
      <point x="82" y="367" type="curve" smooth="yes"/>
      <point x="105" y="449"/>
      <point x="146" y="511"/>
      <point x="205" y="511" type="curve"/>
      <point x="272" y="511"/>
      <point x="309" y="424"/>
      <point x="309" y="300" type="curve" smooth="yes"/>
      <point x="309" y="249"/>
      <point x="304" y="196"/>
      <point x="291" y="151" type="curve" smooth="yes"/>
      <point x="269" y="69"/>
      <point x="228" y="7"/>
    </contour>
  </outline>
</glyph>
<glyph name="iinvertedbreve" format="2">
  <advance width="169"/>
  <unicode hex="020B"/>
  <outline>
    <contour>
      <point x="110" y="744" type="curve" smooth="yes"/>
      <point x="66" y="744"/>
      <point x="33" y="707"/>
      <point x="23" y="606" type="curve"/>
      <point x="36" y="606" type="line"/>
      <point x="48" y="675"/>
      <point x="70" y="704"/>
      <point x="107" y="704" type="curve" smooth="yes"/>
      <point x="153" y="704"/>
      <point x="166" y="666"/>
      <point x="167" y="606" type="curve"/>
      <point x="180" y="606" type="line"/>
      <point x="180" y="613"/>
      <point x="180" y="621"/>
      <point x="180" y="625" type="curve" smooth="yes"/>
      <point x="181" y="703"/>
      <point x="155" y="744"/>
    </contour>
    <component base="dotlessi"/>
  </outline>
</glyph>
<glyph name="circumflex" format="2">
  <advance width="343"/>
  <unicode hex="02C6"/>
  <anchor x="166" y="529" name="_top"/>
  <outline>
    <contour>
      <point x="208" y="749" type="line"/>
      <point x="260" y="608" type="line"/>
      <point x="259" y="603" type="line"/>
      <point x="248" y="603" type="line"/>
      <point x="176" y="730" type="line"/>
      <point x="200" y="730" type="line"/>
      <point x="97" y="603" type="line"/>
      <point x="84" y="603" type="line"/>
      <point x="85" y="608" type="line"/>
      <point x="171" y="749" type="line"/>
    </contour>
  </outline>
</glyph>
<glyph name="breve" format="2">
  <advance width="343"/>
  <unicode hex="02D8"/>
  <anchor x="163" y="517" name="_top"/>
  <outline>
    <contour>
      <point x="183" y="604" type="curve" smooth="yes"/>
      <point x="225" y="604"/>
      <point x="260" y="641"/>
      <point x="268" y="742" type="curve"/>
      <point x="256" y="742" type="line"/>
      <point x="245" y="673"/>
      <point x="221" y="644"/>
      <point x="185" y="644" type="curve" smooth="yes"/>
      <point x="138" y="644"/>
      <point x="127" y="682"/>
      <point x="125" y="742" type="curve"/>
      <point x="112" y="742" type="line"/>
      <point x="111" y="735"/>
      <point x="111" y="727"/>
      <point x="111" y="723" type="curve" smooth="yes"/>
      <point x="111" y="645"/>
      <point x="137" y="604"/>
    </contour>
  </outline>
</glyph>
<glyph name="ring" format="2">
  <advance width="343"/>
  <unicode hex="02DA"/>
  <anchor x="169" y="526" name="_top"/>
  <outline>
    <contour>
      <point x="173" y="612" type="curve" smooth="yes"/>
      <point x="151" y="612"/>
      <point x="138" y="634"/>
      <point x="138" y="677" type="curve" smooth="yes"/>
      <point x="138" y="726"/>
      <point x="154" y="753"/>
      <point x="180" y="753" type="curve" smooth="yes"/>
      <point x="201" y="753"/>
      <point x="215" y="731"/>
      <point x="215" y="689" type="curve" smooth="yes"/>
      <point x="215" y="639"/>
      <point x="198" y="612"/>
    </contour>
    <contour>
      <point x="173" y="597" type="curve" smooth="yes"/>
      <point x="211" y="597"/>
      <point x="244" y="629"/>
      <point x="244" y="689" type="curve" smooth="yes"/>
      <point x="244" y="740"/>
      <point x="215" y="769"/>
      <point x="180" y="769" type="curve" smooth="yes"/>
      <point x="141" y="769"/>
      <point x="109" y="736"/>
      <point x="109" y="677" type="curve" smooth="yes"/>
      <point x="109" y="625"/>
      <point x="139" y="597"/>
    </contour>
  </outline>
</glyph>
<glyph name="hungarumlaut" format="2">
  <advance width="343"/>
  <unicode hex="02DD"/>
  <anchor x="173" y="525" name="_top"/>
  <outline>
    <contour>
      <point x="136" y="718" type="curve" smooth="yes"/>
      <point x="98" y="592" type="line"/>
      <point x="97" y="585" type="line"/>
      <point x="105" y="585" type="line"/>
      <point x="164" y="689" type="line" smooth="yes"/>
      <point x="175" y="706"/>
      <point x="185" y="722"/>
      <point x="185" y="740" type="curve" smooth="yes"/>
      <point x="185" y="755"/>
      <point x="178" y="765"/>
      <point x="167" y="765" type="curve" smooth="yes"/>
      <point x="153" y="765"/>
      <point x="146" y="749"/>
    </contour>
    <contour>
      <point x="229" y="718" type="curve" smooth="yes"/>
      <point x="190" y="592" type="line"/>
      <point x="190" y="585" type="line"/>
      <point x="198" y="585" type="line"/>
      <point x="257" y="689" type="line" smooth="yes"/>
      <point x="267" y="706"/>
      <point x="277" y="722"/>
      <point x="277" y="740" type="curve" smooth="yes"/>
      <point x="277" y="755"/>
      <point x="270" y="765"/>
      <point x="260" y="765" type="curve" smooth="yes"/>
      <point x="245" y="765"/>
      <point x="238" y="749"/>
    </contour>
  </outline>
</glyph>
<glyph name="Omega" format="2">
  <advance width="527"/>
  <unicode hex="03A9"/>
  <outline>
    <contour>
      <point x="291" y="702" type="curve" smooth="yes"/>
      <point x="181" y="702"/>
      <point x="107" y="595"/>
      <point x="107" y="397" type="curve" smooth="yes"/>
      <point x="107" y="253"/>
      <point x="139" y="153"/>
      <point x="199" y="29" type="curve"/>
      <point x="195" y="0" type="line"/>
      <point x="0" y="0" type="line"/>
      <point x="20" y="173" type="line"/>
      <point x="33" y="173" type="line"/>
      <point x="29" y="79" type="line" smooth="yes"/>
      <point x="28" y="44"/>
      <point x="49" y="36"/>
      <point x="109" y="36" type="curve" smooth="yes"/>
      <point x="187" y="36" type="line"/>
      <point x="188" y="18" type="line"/>
      <point x="119" y="156"/>
      <point x="70" y="276"/>
      <point x="70" y="398" type="curve" smooth="yes"/>
      <point x="70" y="601"/>
      <point x="162" y="720"/>
      <point x="291" y="720" type="curve" smooth="yes"/>
      <point x="408" y="720"/>
      <point x="486" y="606"/>
      <point x="486" y="452" type="curve" smooth="yes"/>
      <point x="486" y="294"/>
      <point x="411" y="179"/>
      <point x="274" y="16" type="curve"/>
      <point x="279" y="36" type="line"/>
      <point x="361" y="36" type="line" smooth="yes"/>
      <point x="420" y="36"/>
      <point x="444" y="43"/>
      <point x="452" y="79" type="curve" smooth="yes"/>
      <point x="470" y="173" type="line"/>
      <point x="481" y="173" type="line"/>
      <point x="462" y="0" type="line"/>
      <point x="263" y="0" type="line"/>
      <point x="267" y="29" type="line"/>
      <point x="386" y="177"/>
      <point x="450" y="295"/>
      <point x="450" y="451" type="curve" smooth="yes"/>
      <point x="450" y="598"/>
      <point x="392" y="702"/>
    </contour>
  </outline>
</glyph>
<glyph name="mu" format="2">
  <advance width="389"/>
  <unicode hex="03BC"/>
  <outline>
    <contour>
      <point x="305" y="-10" type="curve" smooth="yes"/>
      <point x="336" y="-10"/>
      <point x="360" y="20"/>
      <point x="376" y="60" type="curve"/>
      <point x="367" y="71" type="line"/>
      <point x="353" y="36"/>
      <point x="332" y="8"/>
      <point x="312" y="8" type="curve" smooth="yes"/>
      <point x="296" y="8"/>
      <point x="287" y="20"/>
      <point x="287" y="48" type="curve" smooth="yes"/>
      <point x="287" y="76"/>
      <point x="290" y="105"/>
      <point x="294" y="132" type="curve" smooth="yes"/>
      <point x="341" y="518" type="line"/>
      <point x="306" y="518" type="line"/>
      <point x="263" y="167" type="line"/>
      <point x="264" y="167" type="line"/>
      <point x="259" y="132"/>
      <point x="254" y="86"/>
      <point x="254" y="58" type="curve" smooth="yes"/>
      <point x="254" y="11"/>
      <point x="273" y="-10"/>
    </contour>
    <contour>
      <point x="1" y="-250" type="line"/>
      <point x="39" y="-250" type="line"/>
      <point x="54" y="-118"/>
      <point x="44" y="-56"/>
      <point x="62" y="142" type="curve"/>
      <point x="57" y="111" type="line"/>
      <point x="54" y="17"/>
      <point x="84" y="-10"/>
      <point x="127" y="-10" type="curve" smooth="yes"/>
      <point x="188" y="-10"/>
      <point x="238" y="73"/>
      <point x="285" y="202" type="curve"/>
      <point x="279" y="216" type="line"/>
      <point x="232" y="94"/>
      <point x="184" y="11"/>
      <point x="132" y="11" type="curve" smooth="yes"/>
      <point x="100" y="11"/>
      <point x="83" y="37"/>
      <point x="83" y="97" type="curve" smooth="yes"/>
      <point x="83" y="124"/>
      <point x="87" y="154"/>
      <point x="91" y="191" type="curve" smooth="yes"/>
      <point x="133" y="518" type="line"/>
      <point x="98" y="518" type="line"/>
    </contour>
  </outline>
</glyph>
<glyph name="ohorntilde" format="2">
  <advance width="371"/>
  <unicode hex="1EE1"/>
  <outline>
    <contour>
      <point x="251" y="642" type="curve" smooth="yes"/>
      <point x="277" y="642"/>
      <point x="295" y="671"/>
      <point x="311" y="728" type="curve"/>
      <point x="299" y="736" type="line"/>
      <point x="287" y="696"/>
      <point x="277" y="680"/>
      <point x="259" y="680" type="curve" smooth="yes"/>
      <point x="234" y="680"/>
      <point x="214" y="733"/>
      <point x="182" y="733" type="curve" smooth="yes"/>
      <point x="154" y="733"/>
      <point x="136" y="703"/>
      <point x="122" y="644" type="curve"/>
      <point x="134" y="637" type="line"/>
      <point x="143" y="676"/>
      <point x="155" y="696"/>
      <point x="173" y="696" type="curve" smooth="yes"/>
      <point x="198" y="696"/>
      <point x="217" y="642"/>
    </contour>
    <component base="ohorn"/>
  </outline>
</glyph>
<glyph name="emdash" format="2">
  <advance width="627"/>
  <unicode hex="2014"/>
  <outline>
    <contour>
      <point x="45" y="326" type="line"/>
      <point x="42" y="305" type="line"/>
      <point x="582" y="305" type="line"/>
      <point x="585" y="326" type="line"/>
    </contour>
  </outline>
</glyph>
<glyph name="daggerdbl" format="2">
  <advance width="282"/>
  <unicode hex="2021"/>
  <outline>
    <contour>
      <point x="9" y="171" type="line"/>
      <point x="23" y="171" type="line"/>
      <point x="127" y="188" type="line"/>
      <point x="134" y="188" type="line"/>
      <point x="234" y="171" type="line"/>
      <point x="248" y="171" type="line"/>
      <point x="255" y="224" type="line"/>
      <point x="241" y="224" type="line"/>
      <point x="136" y="201" type="line"/>
      <point x="129" y="201" type="line"/>
      <point x="29" y="224" type="line"/>
      <point x="16" y="224" type="line"/>
    </contour>
    <contour>
      <point x="129" y="345" type="line"/>
      <point x="133" y="307"/>
      <point x="134" y="269"/>
      <point x="126" y="199" type="curve"/>
      <point x="115" y="114"/>
      <point x="96" y="52"/>
      <point x="93" y="25" type="curve" smooth="yes"/>
      <point x="89" y="0" type="line"/>
      <point x="127" y="0" type="line"/>
      <point x="130" y="25" type="line" smooth="yes"/>
      <point x="133" y="52"/>
      <point x="128" y="114"/>
      <point x="138" y="199" type="curve"/>
      <point x="147" y="269"/>
      <point x="156" y="307"/>
      <point x="170" y="345" type="curve"/>
      <point x="173" y="365" type="line"/>
      <point x="169" y="403"/>
      <point x="167" y="441"/>
      <point x="177" y="511" type="curve"/>
      <point x="187" y="596"/>
      <point x="206" y="658"/>
      <point x="210" y="685" type="curve" smooth="yes"/>
      <point x="212" y="710" type="line"/>
      <point x="175" y="710" type="line"/>
      <point x="173" y="685" type="line" smooth="yes"/>
      <point x="169" y="658"/>
      <point x="174" y="596"/>
      <point x="163" y="511" type="curve"/>
      <point x="155" y="441"/>
      <point x="145" y="403"/>
      <point x="131" y="365" type="curve"/>
    </contour>
    <contour>
      <point x="47" y="486" type="line"/>
      <point x="61" y="486" type="line"/>
      <point x="166" y="509" type="line"/>
      <point x="173" y="509" type="line"/>
      <point x="272" y="486" type="line"/>
      <point x="286" y="486" type="line"/>
      <point x="293" y="539" type="line"/>
      <point x="279" y="539" type="line"/>
      <point x="175" y="522" type="line"/>
      <point x="168" y="522" type="line"/>
      <point x="68" y="539" type="line"/>
      <point x="54" y="539" type="line"/>
    </contour>
  </outline>
</glyph>
<glyph name="bullet" format="2">
  <advance width="250"/>
  <unicode hex="2022"/>
  <outline>
    <contour>
      <point x="48" y="337" type="curve" smooth="yes"/>
      <point x="48" y="275"/>
      <point x="79" y="232"/>
      <point x="125" y="232" type="curve" smooth="yes"/>
      <point x="169" y="232"/>
      <point x="201" y="275"/>
      <point x="201" y="337" type="curve" smooth="yes"/>
      <point x="201" y="399"/>
      <point x="169" y="442"/>
      <point x="125" y="442" type="curve" smooth="yes"/>
      <point x="79" y="442"/>
      <point x="48" y="399"/>
    </contour>
  </outline>
</glyph>
<glyph name="franc" format="2">
  <advance width="384"/>
  <unicode hex="20A3"/>
  <outline>
    <contour>
      <point x="3" y="0" type="line"/>
      <point x="167" y="0" type="line"/>
      <point x="169" y="15" type="line"/>
      <point x="157" y="15" type="line" smooth="yes"/>
      <point x="131" y="15"/>
      <point x="99" y="17"/>
      <point x="102" y="41" type="curve" smooth="yes"/>
      <point x="180" y="692" type="line"/>
      <point x="301" y="692" type="line" smooth="yes"/>
      <point x="359" y="692"/>
      <point x="375" y="685"/>
      <point x="375" y="658" type="curve" smooth="yes"/>
      <point x="371" y="557" type="line"/>
      <point x="384" y="557" type="line"/>
      <point x="403" y="710" type="line"/>
      <point x="89" y="710" type="line"/>
      <point x="86" y="695" type="line"/>
      <point x="93" y="695" type="line" smooth="yes"/>
      <point x="123" y="695"/>
      <point x="144" y="689"/>
      <point x="142" y="667" type="curve" smooth="yes"/>
      <point x="67" y="42" type="line" smooth="yes"/>
      <point x="63" y="21"/>
      <point x="41" y="15"/>
      <point x="12" y="15" type="curve" smooth="yes"/>
      <point x="5" y="15" type="line"/>
    </contour>
    <contour>
      <point x="137" y="398" type="curve"/>
      <point x="134" y="382" type="line"/>
      <point x="224" y="380"/>
      <point x="265" y="379"/>
      <point x="306" y="371" type="curve"/>
      <point x="311" y="408" type="line"/>
      <point x="268" y="401"/>
      <point x="226" y="400"/>
    </contour>
    <contour>
      <point x="30" y="219" type="line"/>
      <point x="27" y="202" type="line"/>
      <point x="226" y="202" type="line"/>
      <point x="228" y="219" type="line"/>
    </contour>
  </outline>
</glyph>
<glyph name="naira" format="2">
  <advance width="384"/>
  <unicode hex="20A6"/>
  <outline>
    <contour>
      <point x="-26" y="0" type="line"/>
      <point x="99" y="0" type="line"/>
      <point x="101" y="15" type="line"/>
      <point x="94" y="15" type="line" smooth="yes"/>
      <point x="71" y="15"/>
      <point x="44" y="25"/>
      <point x="45" y="33" type="curve" smooth="yes"/>
      <point x="126" y="705" type="line"/>
      <point x="116" y="701" type="line"/>
      <point x="260" y="0" type="line"/>
      <point x="285" y="0" type="line"/>
      <point x="364" y="659" type="line" smooth="yes"/>
      <point x="367" y="684"/>
      <point x="390" y="695"/>
      <point x="415" y="695" type="curve" smooth="yes"/>
      <point x="420" y="695" type="line"/>
      <point x="422" y="710" type="line"/>
      <point x="297" y="710" type="line"/>
      <point x="295" y="695" type="line"/>
      <point x="300" y="695" type="line" smooth="yes"/>
      <point x="325" y="695"/>
      <point x="351" y="685"/>
      <point x="351" y="676" type="curve"/>
      <point x="274" y="35" type="line"/>
      <point x="283" y="49" type="line"/>
      <point x="149" y="710" type="line"/>
      <point x="60" y="710" type="line"/>
      <point x="58" y="695" type="line"/>
      <point x="65" y="695" type="line" smooth="yes"/>
      <point x="87" y="695"/>
      <point x="108" y="688"/>
      <point x="105" y="666" type="curve" smooth="yes"/>
      <point x="31" y="51" type="line" smooth="yes"/>
      <point x="28" y="26"/>
      <point x="7" y="15"/>
      <point x="-19" y="15" type="curve" smooth="yes"/>
      <point x="-24" y="15" type="line"/>
    </contour>
    <contour>
      <point x="85" y="435" type="line"/>
      <point x="27" y="435" type="line"/>
      <point x="25" y="418" type="line"/>
      <point x="84" y="418" type="line"/>
    </contour>
    <contour>
      <point x="189" y="418" type="line"/>
      <point x="325" y="418" type="line"/>
      <point x="331" y="418" type="line"/>
      <point x="385" y="418" type="line"/>
      <point x="387" y="435" type="line"/>
      <point x="187" y="435" type="line"/>
    </contour>
    <contour>
      <point x="309" y="259" type="line"/>
      <point x="366" y="259" type="line"/>
      <point x="368" y="276" type="line"/>
      <point x="311" y="276" type="line"/>
    </contour>
    <contour>
      <point x="216" y="276" type="line"/>
      <point x="69" y="276" type="line"/>
      <point x="65" y="276" type="line"/>
      <point x="8" y="276" type="line"/>
      <point x="6" y="259" type="line"/>
      <point x="221" y="259" type="line"/>
    </contour>
  </outline>
</glyph>
<glyph name="Euro" format="2">
  <advance width="384"/>
  <unicode hex="20AC"/>
  <outline>
    <contour>
      <point x="286" y="720" type="curve" smooth="yes"/>
      <point x="142" y="720"/>
      <point x="59" y="497"/>
      <point x="59" y="263" type="curve" smooth="yes"/>
      <point x="59" y="91"/>
      <point x="117" y="-10"/>
      <point x="210" y="-10" type="curve" smooth="yes"/>
      <point x="278" y="-10"/>
      <point x="323" y="49"/>
      <point x="349" y="135" type="curve"/>
      <point x="338" y="147" type="line"/>
      <point x="318" y="75"/>
      <point x="277" y="7"/>
      <point x="211" y="7" type="curve" smooth="yes"/>
      <point x="137" y="7"/>
      <point x="96" y="97"/>
      <point x="96" y="262" type="curve" smooth="yes"/>
      <point x="96" y="296"/>
      <point x="98" y="345"/>
      <point x="105" y="392" type="curve" smooth="yes"/>
      <point x="132" y="616"/>
      <point x="205" y="703"/>
      <point x="285" y="703" type="curve" smooth="yes"/>
      <point x="330" y="703"/>
      <point x="358" y="683"/>
      <point x="373" y="650" type="curve"/>
      <point x="381" y="655"/>
      <point x="370" y="683"/>
      <point x="354" y="685" type="curve"/>
      <point x="343" y="595" type="line"/>
      <point x="382" y="595" type="line"/>
      <point x="391" y="668" type="line"/>
      <point x="380" y="687"/>
      <point x="346" y="720"/>
    </contour>
    <contour>
      <point x="26" y="431" type="line"/>
      <point x="24" y="414" type="line"/>
      <point x="273" y="414" type="line"/>
      <point x="276" y="431" type="line"/>
    </contour>
    <contour>
      <point x="8" y="281" type="line"/>
      <point x="5" y="264" type="line"/>
      <point x="227" y="264" type="line"/>
      <point x="229" y="281" type="line"/>
    </contour>
  </outline>
</glyph>
<glyph name="guarani" format="2">
  <advance width="383"/>
  <unicode hex="20B2"/>
  <outline>
    <contour>
      <point x="240" y="790" type="line"/>
      <point x="228" y="691" type="line"/>
      <point x="227" y="686" type="line"/>
      <point x="148" y="30" type="line"/>
      <point x="147" y="24" type="line"/>
      <point x="130" y="-120" type="line"/>
      <point x="145" y="-120" type="line"/>
      <point x="162" y="22" type="line"/>
      <point x="163" y="28" type="line"/>
      <point x="241" y="686" type="line"/>
      <point x="242" y="692" type="line"/>
      <point x="254" y="790" type="line"/>
    </contour>
    <contour>
      <point x="179" y="10" type="curve" smooth="yes"/>
      <point x="235" y="10"/>
      <point x="281" y="52"/>
      <point x="306" y="89" type="curve"/>
      <point x="333" y="309" type="line" smooth="yes"/>
      <point x="335" y="333"/>
      <point x="350" y="338"/>
      <point x="369" y="338" type="curve" smooth="yes"/>
      <point x="372" y="338" type="line"/>
      <point x="374" y="353" type="line"/>
      <point x="263" y="353" type="line"/>
      <point x="261" y="338" type="line"/>
      <point x="266" y="338" type="line" smooth="yes"/>
      <point x="288" y="338"/>
      <point x="304" y="333"/>
      <point x="300" y="309" type="curve" smooth="yes"/>
      <point x="274" y="83" type="line"/>
      <point x="260" y="64"/>
      <point x="226" y="27"/>
      <point x="180" y="27" type="curve" smooth="yes"/>
      <point x="107" y="27"/>
      <point x="60" y="102"/>
      <point x="60" y="280" type="curve" smooth="yes"/>
      <point x="60" y="311"/>
      <point x="61" y="355"/>
      <point x="66" y="394" type="curve" smooth="yes"/>
      <point x="88" y="581"/>
      <point x="149" y="683"/>
      <point x="240" y="683" type="curve" smooth="yes"/>
      <point x="300" y="683"/>
      <point x="337" y="650"/>
      <point x="348" y="615" type="curve"/>
      <point x="356" y="620"/>
      <point x="349" y="649"/>
      <point x="331" y="653" type="curve"/>
      <point x="319" y="561" type="line"/>
      <point x="358" y="561" type="line"/>
      <point x="367" y="639" type="line"/>
      <point x="352" y="661"/>
      <point x="309" y="700"/>
      <point x="241" y="700" type="curve" smooth="yes"/>
      <point x="107" y="700"/>
      <point x="22" y="516"/>
      <point x="22" y="281" type="curve" smooth="yes"/>
      <point x="22" y="104"/>
      <point x="90" y="10"/>
    </contour>
  </outline>
</glyph>
<glyph name="numero" format="2">
  <advance width="773"/>
  <unicode hex="2116"/>
  <outline>
    <contour>
      <point x="516" y="228" type="line"/>
      <point x="727" y="228" type="line"/>
      <point x="725" y="210" type="line"/>
      <point x="514" y="210" type="line"/>
    </contour>
    <component base="N"/>
    <component base="ordmasculine" xOffset="471"/>
  </outline>
</glyph>
<glyph name="servicemark" format="2">
  <advance width="522"/>
  <unicode hex="2120"/>
  <outline>
    <contour>
      <point x="247" y="395" type="line"/>
      <point x="308" y="395" type="line"/>
      <point x="310" y="408" type="line"/>
      <point x="307" y="408" type="line" smooth="yes"/>
      <point x="301" y="408"/>
      <point x="289" y="411"/>
      <point x="289" y="413" type="curve" smooth="yes"/>
      <point x="324" y="702" type="line"/>
      <point x="321" y="701" type="line"/>
      <point x="360" y="394" type="line"/>
      <point x="373" y="394" type="line"/>
      <point x="487" y="702" type="line"/>
      <point x="484" y="702" type="line"/>
      <point x="450" y="413" type="line" smooth="yes"/>
      <point x="450" y="411"/>
      <point x="439" y="408"/>
      <point x="431" y="408" type="curve" smooth="yes"/>
      <point x="428" y="408" type="line"/>
      <point x="426" y="395" type="line"/>
      <point x="503" y="395" type="line"/>
      <point x="505" y="408" type="line"/>
      <point x="499" y="408" type="line" smooth="yes"/>
      <point x="485" y="408"/>
      <point x="478" y="412"/>
      <point x="479" y="425" type="curve" smooth="yes"/>
      <point x="510" y="681" type="line" smooth="yes"/>
      <point x="511" y="695"/>
      <point x="520" y="697"/>
      <point x="535" y="697" type="curve" smooth="yes"/>
      <point x="540" y="697" type="line"/>
      <point x="541" y="710" type="line"/>
      <point x="478" y="710" type="line"/>
      <point x="377" y="435" type="line"/>
      <point x="381" y="435" type="line"/>
      <point x="349" y="710" type="line"/>
      <point x="286" y="710" type="line"/>
      <point x="285" y="697" type="line"/>
      <point x="289" y="697" type="line" smooth="yes"/>
      <point x="303" y="697"/>
      <point x="312" y="696"/>
      <point x="310" y="684" type="curve" smooth="yes"/>
      <point x="279" y="422" type="line" smooth="yes"/>
      <point x="277" y="411"/>
      <point x="267" y="408"/>
      <point x="254" y="408" type="curve"/>
      <point x="250" y="408" type="line"/>
    </contour>
    <contour>
      <point x="80" y="637" type="curve" smooth="yes"/>
      <point x="80" y="588"/>
      <point x="106" y="564"/>
      <point x="136" y="544" type="curve" smooth="yes"/>
      <point x="176" y="517"/>
      <point x="194" y="500"/>
      <point x="194" y="465" type="curve" smooth="yes"/>
      <point x="194" y="426"/>
      <point x="174" y="400"/>
      <point x="142" y="400" type="curve" smooth="yes"/>
      <point x="111" y="400"/>
      <point x="81" y="425"/>
      <point x="69" y="486" type="curve"/>
      <point x="59" y="486" type="line"/>
      <point x="47" y="391" type="line"/>
      <point x="57" y="391" type="line"/>
      <point x="70" y="468" type="line"/>
      <point x="63" y="463" type="line"/>
      <point x="77" y="409"/>
      <point x="111" y="386"/>
      <point x="142" y="386" type="curve" smooth="yes"/>
      <point x="187" y="386"/>
      <point x="216" y="420"/>
      <point x="216" y="479" type="curve" smooth="yes"/>
      <point x="216" y="526"/>
      <point x="194" y="547"/>
      <point x="152" y="576" type="curve" smooth="yes"/>
      <point x="126" y="594"/>
      <point x="101" y="608"/>
      <point x="101" y="648" type="curve" smooth="yes"/>
      <point x="101" y="684"/>
      <point x="116" y="706"/>
      <point x="147" y="706" type="curve" smooth="yes"/>
      <point x="178" y="706"/>
      <point x="198" y="678"/>
      <point x="206" y="637" type="curve"/>
      <point x="216" y="637" type="line"/>
      <point x="227" y="716" type="line"/>
      <point x="217" y="716" type="line"/>
      <point x="206" y="657" type="line"/>
      <point x="211" y="657" type="line"/>
      <point x="203" y="692"/>
      <point x="181" y="720"/>
      <point x="147" y="720" type="curve" smooth="yes"/>
      <point x="106" y="720"/>
      <point x="80" y="688"/>
    </contour>
  </outline>
</glyph>
<glyph name="trademark" format="2">
  <advance width="524"/>
  <unicode hex="2122"/>
  <outline>
    <contour>
      <point x="85" y="395" type="line"/>
      <point x="173" y="395" type="line"/>
      <point x="175" y="408" type="line"/>
      <point x="168" y="408" type="line" smooth="yes"/>
      <point x="155" y="408"/>
      <point x="145" y="411"/>
      <point x="147" y="422" type="curve" smooth="yes"/>
      <point x="180" y="696" type="line"/>
      <point x="205" y="696" type="line" smooth="yes"/>
      <point x="238" y="696"/>
      <point x="243" y="692"/>
      <point x="241" y="675" type="curve" smooth="yes"/>
      <point x="238" y="627" type="line"/>
      <point x="247" y="627" type="line"/>
      <point x="258" y="710" type="line"/>
      <point x="77" y="710" type="line"/>
      <point x="67" y="627" type="line"/>
      <point x="76" y="627" type="line"/>
      <point x="85" y="675" type="line" smooth="yes"/>
      <point x="88" y="692"/>
      <point x="91" y="696"/>
      <point x="126" y="696" type="curve" smooth="yes"/>
      <point x="151" y="696" type="line"/>
      <point x="119" y="422" type="line" smooth="yes"/>
      <point x="118" y="411"/>
      <point x="106" y="408"/>
      <point x="93" y="408" type="curve" smooth="yes"/>
      <point x="87" y="408" type="line"/>
    </contour>
    <contour>
      <point x="250" y="395" type="line"/>
      <point x="310" y="395" type="line"/>
      <point x="313" y="408" type="line"/>
      <point x="310" y="408" type="line" smooth="yes"/>
      <point x="303" y="408"/>
      <point x="291" y="411"/>
      <point x="291" y="413" type="curve" smooth="yes"/>
      <point x="326" y="702" type="line"/>
      <point x="323" y="701" type="line"/>
      <point x="362" y="394" type="line"/>
      <point x="376" y="394" type="line"/>
      <point x="490" y="702" type="line"/>
      <point x="487" y="702" type="line"/>
      <point x="452" y="413" type="line" smooth="yes"/>
      <point x="452" y="411"/>
      <point x="442" y="408"/>
      <point x="434" y="408" type="curve" smooth="yes"/>
      <point x="431" y="408" type="line"/>
      <point x="428" y="395" type="line"/>
      <point x="505" y="395" type="line"/>
      <point x="507" y="408" type="line"/>
      <point x="502" y="408" type="line" smooth="yes"/>
      <point x="487" y="408"/>
      <point x="480" y="412"/>
      <point x="482" y="425" type="curve" smooth="yes"/>
      <point x="512" y="681" type="line" smooth="yes"/>
      <point x="514" y="695"/>
      <point x="523" y="697"/>
      <point x="537" y="697" type="curve" smooth="yes"/>
      <point x="542" y="697" type="line"/>
      <point x="544" y="710" type="line"/>
      <point x="481" y="710" type="line"/>
      <point x="379" y="435" type="line"/>
      <point x="383" y="435" type="line"/>
      <point x="352" y="710" type="line"/>
      <point x="288" y="710" type="line"/>
      <point x="287" y="697" type="line"/>
      <point x="291" y="697" type="line" smooth="yes"/>
      <point x="305" y="697"/>
      <point x="314" y="696"/>
      <point x="312" y="684" type="curve" smooth="yes"/>
      <point x="281" y="422" type="line" smooth="yes"/>
      <point x="280" y="411"/>
      <point x="270" y="408"/>
      <point x="256" y="408" type="curve"/>
      <point x="252" y="408" type="line"/>
    </contour>
  </outline>
</glyph>
<glyph name="product" format="2">
  <advance width="480"/>
  <unicode hex="220F"/>
  <outline>
    <contour>
      <point x="240" y="693" type="line"/>
      <point x="220" y="693"/>
      <point x="201" y="693"/>
      <point x="180" y="693" type="curve"/>
      <point x="73" y="-198" type="line"/>
      <point x="72" y="-205"/>
      <point x="101" y="-208"/>
      <point x="124" y="-208" type="curve" smooth="yes"/>
      <point x="131" y="-208" type="line"/>
      <point x="129" y="-223" type="line"/>
      <point x="-24" y="-223" type="line"/>
      <point x="-23" y="-208" type="line"/>
      <point x="-15" y="-208" type="line" smooth="yes"/>
      <point x="14" y="-208"/>
      <point x="38" y="-202"/>
      <point x="40" y="-180" type="curve" smooth="yes"/>
      <point x="142" y="667" type="line" smooth="yes"/>
      <point x="145" y="689"/>
      <point x="125" y="695"/>
      <point x="93" y="695" type="curve" smooth="yes"/>
      <point x="86" y="695" type="line"/>
      <point x="88" y="710" type="line"/>
      <point x="494" y="710" type="line"/>
      <point x="492" y="695" type="line"/>
      <point x="485" y="695" type="line" smooth="yes"/>
      <point x="458" y="695"/>
      <point x="433" y="690"/>
      <point x="430" y="667" type="curve" smooth="yes"/>
      <point x="328" y="-180" type="line" smooth="yes"/>
      <point x="325" y="-202"/>
      <point x="347" y="-208"/>
      <point x="377" y="-208" type="curve" smooth="yes"/>
      <point x="383" y="-208" type="line"/>
      <point x="382" y="-223" type="line"/>
      <point x="228" y="-223" type="line"/>
      <point x="231" y="-208" type="line"/>
      <point x="236" y="-208" type="line" smooth="yes"/>
      <point x="260" y="-208"/>
      <point x="290" y="-205"/>
      <point x="291" y="-198" type="curve" smooth="yes"/>
      <point x="398" y="693" type="line"/>
      <point x="378" y="693"/>
      <point x="359" y="693"/>
      <point x="338" y="693" type="curve"/>
    </contour>
  </outline>
</glyph>
<glyph name="summation" format="2">
  <advance width="380"/>
  <unicode hex="2211"/>
  <outline>
    <contour>
      <point x="-62" y="-223" type="line"/>
      <point x="-58" y="-192" type="line"/>
      <point x="200" y="266" type="line"/>
      <point x="191" y="237" type="line"/>
      <point x="46" y="672" type="line"/>
      <point x="51" y="710" type="line"/>
      <point x="374" y="710" type="line"/>
      <point x="353" y="536" type="line"/>
      <point x="339" y="536" type="line"/>
      <point x="343" y="631" type="line" smooth="yes"/>
      <point x="345" y="667"/>
      <point x="328" y="674"/>
      <point x="269" y="674" type="curve" smooth="yes"/>
      <point x="65" y="674" type="line"/>
      <point x="77" y="688" type="line"/>
      <point x="217" y="272" type="line"/>
      <point x="215" y="257" type="line"/>
      <point x="-43" y="-198" type="line"/>
      <point x="-45" y="-187" type="line"/>
      <point x="187" y="-187" type="line" smooth="yes"/>
      <point x="247" y="-187"/>
      <point x="266" y="-180"/>
      <point x="273" y="-144" type="curve" smooth="yes"/>
      <point x="293" y="-47" type="line"/>
      <point x="307" y="-47" type="line"/>
      <point x="285" y="-223" type="line"/>
    </contour>
  </outline>
</glyph>
<glyph name="hook" format="2">
  <advance width="349"/>
  <unicode hex="2440"/>
  <anchor x="157" y="517" name="_top"/>
  <outline>
    <contour>
      <point x="98" y="708" type="line"/>
      <point x="105" y="752"/>
      <point x="131" y="779"/>
      <point x="174" y="779" type="curve" smooth="yes"/>
      <point x="215" y="779"/>
      <point x="237" y="754"/>
      <point x="237" y="715" type="curve" smooth="yes"/>
      <point x="237" y="669"/>
      <point x="204" y="636"/>
      <point x="152" y="627" type="curve"/>
      <point x="166" y="640" type="line"/>
      <point x="160" y="588" type="line"/>
      <point x="142" y="588" type="line"/>
      <point x="149" y="643" type="line"/>
      <point x="183" y="651"/>
      <point x="205" y="677"/>
      <point x="205" y="714" type="curve" smooth="yes"/>
      <point x="205" y="743"/>
      <point x="194" y="761"/>
      <point x="172" y="761" type="curve" smooth="yes"/>
      <point x="144" y="761"/>
      <point x="133" y="739"/>
      <point x="127" y="708" type="curve"/>
    </contour>
  </outline>
</glyph>
<glyph name="three.den" format="2">
  <advance width="211"/>
  <unicode hex="E405"/>
  <outline>
    <contour>
      <point x="98" y="332" type="curve" smooth="yes"/>
      <point x="71" y="332"/>
      <point x="52" y="318"/>
      <point x="40" y="301" type="curve"/>
      <point x="43" y="315"/>
      <point x="49" y="325"/>
      <point x="60" y="327" type="curve"/>
      <point x="53" y="263" type="line"/>
      <point x="20" y="263" type="line"/>
      <point x="27" y="316" type="line"/>
      <point x="41" y="331"/>
      <point x="67" y="347"/>
      <point x="97" y="347" type="curve" smooth="yes"/>
      <point x="146" y="347"/>
      <point x="177" y="318"/>
      <point x="177" y="268" type="curve" smooth="yes"/>
      <point x="177" y="214"/>
      <point x="136" y="181"/>
      <point x="92" y="179" type="curve"/>
      <point x="82" y="187" type="line"/>
      <point x="145" y="179"/>
      <point x="169" y="144"/>
      <point x="169" y="95" type="curve" smooth="yes"/>
      <point x="169" y="38"/>
      <point x="133" y="-6"/>
      <point x="76" y="-6" type="curve" smooth="yes"/>
      <point x="24" y="-6"/>
      <point x="-3" y="34"/>
      <point x="-14" y="86" type="curve"/>
      <point x="-4" y="93" type="line"/>
      <point x="7" y="44"/>
      <point x="27" y="9"/>
      <point x="76" y="9" type="curve" smooth="yes"/>
      <point x="112" y="9"/>
      <point x="134" y="46"/>
      <point x="134" y="96" type="curve" smooth="yes"/>
      <point x="134" y="138"/>
      <point x="117" y="174"/>
      <point x="71" y="174" type="curve" smooth="yes"/>
      <point x="50" y="174" type="line"/>
      <point x="53" y="189" type="line"/>
      <point x="76" y="189" type="line" smooth="yes"/>
      <point x="126" y="189"/>
      <point x="142" y="223"/>
      <point x="142" y="265" type="curve" smooth="yes"/>
      <point x="142" y="307"/>
      <point x="126" y="332"/>
    </contour>
  </outline>
</glyph>
<glyph name="nine.den" format="2">
  <advance width="211"/>
  <unicode hex="E40B"/>
  <outline>
    <contour>
      <point x="91" y="346" type="curve" smooth="yes"/>
      <point x="140" y="346"/>
      <point x="176" y="300"/>
      <point x="176" y="213" type="curve" smooth="yes"/>
      <point x="176" y="91"/>
      <point x="120" y="-4"/>
      <point x="7" y="-18" type="curve"/>
      <point x="6" y="-6" type="line"/>
      <point x="100" y="9"/>
      <point x="142" y="92"/>
      <point x="142" y="215" type="curve" smooth="yes"/>
      <point x="142" y="294"/>
      <point x="120" y="331"/>
      <point x="91" y="331" type="curve" smooth="yes"/>
      <point x="56" y="331"/>
      <point x="36" y="282"/>
      <point x="36" y="226" type="curve" smooth="yes"/>
      <point x="36" y="175"/>
      <point x="51" y="137"/>
      <point x="81" y="137" type="curve" smooth="yes"/>
      <point x="111" y="137"/>
      <point x="135" y="168"/>
      <point x="154" y="230" type="curve"/>
      <point x="154" y="210" type="line"/>
      <point x="141" y="161"/>
      <point x="112" y="122"/>
      <point x="76" y="122" type="curve" smooth="yes"/>
      <point x="30" y="122"/>
      <point x="1" y="167"/>
      <point x="1" y="226" type="curve" smooth="yes"/>
      <point x="1" y="290"/>
      <point x="33" y="346"/>
    </contour>
  </outline>
</glyph>
<glyph name="Euro.proportional" format="2">
  <advance width="423"/>
  <outline>
    <contour>
      <point x="233" y="-10" type="curve" smooth="yes"/>
      <point x="307" y="-10"/>
      <point x="361" y="50"/>
      <point x="389" y="139" type="curve"/>
      <point x="377" y="151" type="line"/>
      <point x="356" y="77"/>
      <point x="307" y="7"/>
      <point x="234" y="7" type="curve" smooth="yes"/>
      <point x="153" y="7"/>
      <point x="109" y="99"/>
      <point x="109" y="266" type="curve" smooth="yes"/>
      <point x="109" y="298"/>
      <point x="112" y="346"/>
      <point x="117" y="392" type="curve" smooth="yes"/>
      <point x="144" y="616"/>
      <point x="223" y="703"/>
      <point x="306" y="703" type="curve" smooth="yes"/>
      <point x="357" y="703"/>
      <point x="390" y="682"/>
      <point x="406" y="647" type="curve"/>
      <point x="413" y="652"/>
      <point x="403" y="680"/>
      <point x="386" y="682" type="curve"/>
      <point x="374" y="588" type="line"/>
      <point x="414" y="588" type="line"/>
      <point x="423" y="665" type="line"/>
      <point x="411" y="684"/>
      <point x="373" y="720"/>
      <point x="307" y="720" type="curve" smooth="yes"/>
      <point x="158" y="720"/>
      <point x="72" y="498"/>
      <point x="72" y="267" type="curve" smooth="yes"/>
      <point x="72" y="93"/>
      <point x="133" y="-10"/>
    </contour>
    <contour>
      <point x="17" y="281" type="line"/>
      <point x="14" y="264" type="line"/>
      <point x="250" y="264" type="line"/>
      <point x="252" y="281" type="line"/>
    </contour>
    <contour>
      <point x="35" y="431" type="line"/>
      <point x="32" y="414" type="line"/>
      <point x="296" y="414" type="line"/>
      <point x="298" y="431" type="line"/>
    </contour>
  </outline>
</glyph>
<glyph name="backslash.uc" format="2">
  <advance width="283"/>
  <outline>
    <contour>
      <point x="51" y="741" type="line"/>
      <point x="206" y="-36" type="line"/>
      <point x="191" y="-36" type="line"/>
      <point x="36" y="741" type="line"/>
    </contour>
  </outline>
</glyph>
<glyph name="bracketleft.uc" format="2">
  <advance width="193"/>
  <outline>
    <contour>
      <point x="2" y="-44" type="line"/>
      <point x="123" y="-44" type="line"/>
      <point x="126" y="-27" type="line"/>
      <point x="32" y="-27" type="line"/>
      <point x="124" y="737" type="line"/>
      <point x="218" y="737" type="line"/>
      <point x="220" y="753" type="line"/>
      <point x="99" y="753" type="line"/>
    </contour>
  </outline>
</glyph>
<glyph name="breve.uc" format="2">
  <advance width="343"/>
  <anchor x="164" y="694" name="_top"/>
  <outline>
    <contour>
      <point x="179" y="761" type="curve" smooth="yes"/>
      <point x="132" y="761"/>
      <point x="108" y="805"/>
      <point x="108" y="870" type="curve" smooth="yes"/>
      <point x="108" y="876"/>
      <point x="108" y="881"/>
      <point x="108" y="888" type="curve"/>
      <point x="122" y="888" type="line"/>
      <point x="123" y="833"/>
      <point x="136" y="801"/>
      <point x="183" y="801" type="curve" smooth="yes"/>
      <point x="217" y="801"/>
      <point x="243" y="826"/>
      <point x="253" y="888" type="curve"/>
      <point x="265" y="888" type="line"/>
      <point x="258" y="797"/>
      <point x="223" y="761"/>
    </contour>
  </outline>
</glyph>
<glyph name="breve_acute.uc" format="2">
  <advance width="350"/>
  <anchor x="170" y="744" name="_top"/>
  <outline>
    <contour>
      <point x="224" y="1020" type="curve" smooth="yes"/>
      <point x="162" y="922" type="line"/>
      <point x="162" y="916" type="line"/>
      <point x="171" y="916" type="line"/>
      <point x="245" y="985" type="line" smooth="yes"/>
      <point x="266" y="1004"/>
      <point x="277" y="1013"/>
      <point x="277" y="1032" type="curve" smooth="yes"/>
      <point x="277" y="1044"/>
      <point x="272" y="1057"/>
      <point x="260" y="1057" type="curve" smooth="yes"/>
      <point x="247" y="1057"/>
      <point x="239" y="1042"/>
    </contour>
    <component base="breve.uc" xOffset="3"/>
  </outline>
</glyph>
<glyph name="cent.altprop" format="2">
  <advance width="382"/>
  <outline>
    <contour>
      <point x="146" y="-126" type="line"/>
      <point x="161" y="-126" type="line"/>
      <point x="176" y="-1" type="line"/>
      <point x="161" y="-1" type="line"/>
    </contour>
    <contour>
      <point x="224" y="518" type="line"/>
      <point x="239" y="518" type="line"/>
      <point x="252" y="632" type="line"/>
      <point x="238" y="632" type="line"/>
    </contour>
    <contour>
      <point x="233" y="511" type="curve" smooth="yes"/>
      <point x="282" y="511"/>
      <point x="315" y="483"/>
      <point x="328" y="452" type="curve"/>
      <point x="330" y="462"/>
      <point x="328" y="475"/>
      <point x="313" y="485" type="curve"/>
      <point x="302" y="397" type="line"/>
      <point x="339" y="397" type="line"/>
      <point x="349" y="470" type="line"/>
      <point x="341" y="483"/>
      <point x="304" y="528"/>
      <point x="234" y="528" type="curve" smooth="yes"/>
      <point x="114" y="528"/>
      <point x="39" y="387"/>
      <point x="39" y="217" type="curve" smooth="yes"/>
      <point x="39" y="79"/>
      <point x="98" y="-11"/>
      <point x="188" y="-11" type="curve" smooth="yes"/>
      <point x="255" y="-11"/>
      <point x="301" y="46"/>
      <point x="327" y="124" type="curve"/>
      <point x="315" y="136" type="line"/>
      <point x="296" y="74"/>
      <point x="258" y="7"/>
      <point x="190" y="7" type="curve" smooth="yes"/>
      <point x="115" y="7"/>
      <point x="76" y="86"/>
      <point x="76" y="216" type="curve" smooth="yes"/>
      <point x="76" y="377"/>
      <point x="132" y="511"/>
    </contour>
  </outline>
</glyph>
<glyph name="circumflex_tilde" format="2">
  <advance width="343"/>
  <anchor x="158" y="551" name="_top"/>
  <outline>
    <contour>
      <point x="207" y="749" type="line"/>
      <point x="259" y="608" type="line"/>
      <point x="258" y="603" type="line"/>
      <point x="247" y="603" type="line"/>
      <point x="174" y="731" type="line"/>
      <point x="201" y="731" type="line"/>
      <point x="96" y="603" type="line"/>
      <point x="83" y="603" type="line"/>
      <point x="84" y="608" type="line"/>
      <point x="171" y="749" type="line"/>
    </contour>
    <contour>
      <point x="165" y="900" type="curve" smooth="yes"/>
      <point x="138" y="900"/>
      <point x="120" y="871"/>
      <point x="106" y="813" type="curve"/>
      <point x="118" y="806" type="line"/>
      <point x="126" y="844"/>
      <point x="139" y="862"/>
      <point x="157" y="862" type="curve" smooth="yes"/>
      <point x="182" y="862"/>
      <point x="201" y="810"/>
      <point x="235" y="810" type="curve" smooth="yes"/>
      <point x="261" y="810"/>
      <point x="279" y="838"/>
      <point x="294" y="895" type="curve"/>
      <point x="283" y="902" type="line"/>
      <point x="271" y="864"/>
      <point x="261" y="848"/>
      <point x="243" y="848" type="curve" smooth="yes"/>
      <point x="218" y="848"/>
      <point x="197" y="900"/>
    </contour>
  </outline>
</glyph>
<glyph name="colonmonetary.proportional" format="2">
  <advance width="467"/>
  <outline>
    <contour>
      <point x="239" y="10" type="curve" smooth="yes"/>
      <point x="328" y="10"/>
      <point x="396" y="86"/>
      <point x="429" y="220" type="curve"/>
      <point x="418" y="230" type="line"/>
      <point x="389" y="109"/>
      <point x="326" y="27"/>
      <point x="240" y="27" type="curve" smooth="yes"/>
      <point x="139" y="27"/>
      <point x="73" y="146"/>
      <point x="73" y="314" type="curve" smooth="yes"/>
      <point x="73" y="526"/>
      <point x="147" y="683"/>
      <point x="290" y="683" type="curve" smooth="yes"/>
      <point x="365" y="683"/>
      <point x="423" y="642"/>
      <point x="434" y="605" type="curve"/>
      <point x="438" y="616"/>
      <point x="437" y="630"/>
      <point x="422" y="638" type="curve"/>
      <point x="409" y="537" type="line"/>
      <point x="446" y="537" type="line"/>
      <point x="457" y="616" type="line"/>
      <point x="430" y="659"/>
      <point x="377" y="700"/>
      <point x="290" y="700" type="curve" smooth="yes"/>
      <point x="128" y="700"/>
      <point x="36" y="527"/>
      <point x="36" y="318" type="curve" smooth="yes"/>
      <point x="36" y="140"/>
      <point x="126" y="10"/>
    </contour>
    <contour>
      <point x="271" y="790" type="line"/>
      <point x="251" y="691" type="line"/>
      <point x="249" y="685" type="line"/>
      <point x="127" y="84" type="line"/>
      <point x="125" y="74" type="line"/>
      <point x="86" y="-120" type="line"/>
      <point x="101" y="-120" type="line"/>
      <point x="137" y="62" type="line"/>
      <point x="139" y="71" type="line"/>
      <point x="265" y="687" type="line"/>
      <point x="266" y="694" type="line"/>
      <point x="286" y="790" type="line"/>
    </contour>
    <contour>
      <point x="370" y="790" type="line"/>
      <point x="349" y="687" type="line"/>
      <point x="348" y="680" type="line"/>
      <point x="215" y="24" type="line"/>
      <point x="213" y="17" type="line"/>
      <point x="186" y="-120" type="line"/>
      <point x="201" y="-120" type="line"/>
      <point x="229" y="17" type="line"/>
      <point x="230" y="21" type="line"/>
      <point x="362" y="674" type="line"/>
      <point x="364" y="682" type="line"/>
      <point x="385" y="790" type="line"/>
    </contour>
  </outline>
</glyph>
<glyph name="commaaccent" format="2">
  <advance width="343"/>
  <anchor x="163" y="33" name="_bottom"/>
  <outline>
    <contour>
      <point x="146" y="-246" type="line"/>
      <point x="186" y="-217"/>
      <point x="211" y="-171"/>
      <point x="211" y="-129" type="curve" smooth="yes"/>
      <point x="211" y="-101"/>
      <point x="198" y="-87"/>
      <point x="182" y="-87" type="curve" smooth="yes"/>
      <point x="167" y="-87"/>
      <point x="156" y="-102"/>
      <point x="156" y="-121" type="curve" smooth="yes"/>
      <point x="156" y="-143"/>
      <point x="168" y="-155"/>
      <point x="180" y="-155" type="curve" smooth="yes"/>
      <point x="191" y="-155"/>
      <point x="199" y="-147"/>
      <point x="201" y="-132" type="curve"/>
      <point x="199" y="-132"/>
      <point x="197" y="-135"/>
      <point x="197" y="-140" type="curve"/>
      <point x="188" y="-176"/>
      <point x="173" y="-201"/>
      <point x="130" y="-228" type="curve"/>
    </contour>
  </outline>
</glyph>
<glyph name="dblgrave" format="2">
  <advance width="343"/>
  <anchor x="161" y="539" name="_top"/>
  <outline>
    <contour>
      <point x="214" y="718" type="line" smooth="yes"/>
      <point x="205" y="749"/>
      <point x="199" y="765"/>
      <point x="185" y="765" type="curve" smooth="yes"/>
      <point x="174" y="765"/>
      <point x="166" y="754"/>
      <point x="166" y="739" type="curve" smooth="yes"/>
      <point x="166" y="721"/>
      <point x="176" y="704"/>
      <point x="185" y="688" type="curve" smooth="yes"/>
      <point x="243" y="585" type="line"/>
      <point x="252" y="585" type="line"/>
      <point x="251" y="592" type="line"/>
    </contour>
    <contour>
      <point x="122" y="718" type="line" smooth="yes"/>
      <point x="112" y="749"/>
      <point x="107" y="765"/>
      <point x="92" y="765" type="curve" smooth="yes"/>
      <point x="82" y="765"/>
      <point x="74" y="754"/>
      <point x="74" y="739" type="curve" smooth="yes"/>
      <point x="74" y="721"/>
      <point x="83" y="704"/>
      <point x="93" y="688" type="curve" smooth="yes"/>
      <point x="150" y="585" type="line"/>
      <point x="159" y="585" type="line"/>
      <point x="159" y="592" type="line"/>
    </contour>
  </outline>
</glyph>
<glyph name="dblgrave.uc" format="2">
  <advance width="343"/>
  <anchor x="216" y="734" name="_top"/>
  <outline>
    <contour>
      <point x="217" y="858" type="line" smooth="yes"/>
      <point x="208" y="895"/>
      <point x="200" y="911"/>
      <point x="186" y="911" type="curve" smooth="yes"/>
      <point x="176" y="911"/>
      <point x="168" y="902"/>
      <point x="168" y="885" type="curve" smooth="yes"/>
      <point x="168" y="868"/>
      <point x="178" y="852"/>
      <point x="190" y="834" type="curve" smooth="yes"/>
      <point x="230" y="758" type="line"/>
      <point x="239" y="758" type="line"/>
      <point x="239" y="764" type="line"/>
    </contour>
    <contour>
      <point x="135" y="858" type="line" smooth="yes"/>
      <point x="126" y="895"/>
      <point x="119" y="911"/>
      <point x="105" y="911" type="curve" smooth="yes"/>
      <point x="95" y="911"/>
      <point x="86" y="902"/>
      <point x="86" y="885" type="curve" smooth="yes"/>
      <point x="86" y="868"/>
      <point x="96" y="852"/>
      <point x="108" y="834" type="curve" smooth="yes"/>
      <point x="148" y="758" type="line"/>
      <point x="157" y="758" type="line"/>
      <point x="157" y="764" type="line"/>
    </contour>
  </outline>
</glyph>
<glyph name="dieresis.uc" format="2">
  <advance width="343"/>
  <anchor x="165" y="694" name="_top"/>
  <outline>
    <contour>
      <point x="126" y="786" type="curve" smooth="yes"/>
      <point x="141" y="786"/>
      <point x="152" y="800"/>
      <point x="152" y="821" type="curve" smooth="yes"/>
      <point x="152" y="844"/>
      <point x="141" y="857"/>
      <point x="126" y="857" type="curve" smooth="yes"/>
      <point x="111" y="857"/>
      <point x="100" y="844"/>
      <point x="100" y="821" type="curve" smooth="yes"/>
      <point x="100" y="800"/>
      <point x="111" y="786"/>
    </contour>
    <contour>
      <point x="241" y="786" type="curve" smooth="yes"/>
      <point x="256" y="786"/>
      <point x="267" y="800"/>
      <point x="267" y="821" type="curve" smooth="yes"/>
      <point x="267" y="844"/>
      <point x="256" y="857"/>
      <point x="241" y="857" type="curve" smooth="yes"/>
      <point x="226" y="857"/>
      <point x="215" y="844"/>
      <point x="215" y="821" type="curve" smooth="yes"/>
      <point x="215" y="800"/>
      <point x="226" y="786"/>
    </contour>
  </outline>
</glyph>
<glyph name="dollar.proportional" format="2">
  <advance width="411"/>
  <outline>
    <contour>
      <point x="194" y="9" type="curve" smooth="yes"/>
      <point x="288" y="9"/>
      <point x="358" y="77"/>
      <point x="358" y="198" type="curve" smooth="yes"/>
      <point x="358" y="300"/>
      <point x="293" y="341"/>
      <point x="237" y="378" type="curve" smooth="yes"/>
      <point x="171" y="422"/>
      <point x="117" y="451"/>
      <point x="117" y="539" type="curve" smooth="yes"/>
      <point x="117" y="624"/>
      <point x="162" y="680"/>
      <point x="250" y="680" type="curve" smooth="yes"/>
      <point x="296" y="680"/>
      <point x="341" y="665"/>
      <point x="364" y="637" type="curve"/>
      <point x="363" y="646"/>
      <point x="361" y="652"/>
      <point x="354" y="657" type="curve"/>
      <point x="342" y="561" type="line"/>
      <point x="380" y="561" type="line"/>
      <point x="390" y="642" type="line"/>
      <point x="365" y="671"/>
      <point x="317" y="698"/>
      <point x="253" y="698" type="curve" smooth="yes"/>
      <point x="152" y="698"/>
      <point x="88" y="633"/>
      <point x="88" y="530" type="curve" smooth="yes"/>
      <point x="88" y="429"/>
      <point x="148" y="391"/>
      <point x="204" y="353" type="curve" smooth="yes"/>
      <point x="266" y="309"/>
      <point x="327" y="281"/>
      <point x="327" y="190" type="curve" smooth="yes"/>
      <point x="327" y="86"/>
      <point x="276" y="27"/>
      <point x="196" y="27" type="curve" smooth="yes"/>
      <point x="133" y="27"/>
      <point x="76" y="49"/>
      <point x="48" y="96" type="curve"/>
      <point x="46" y="87"/>
      <point x="48" y="77"/>
      <point x="53" y="68" type="curve"/>
      <point x="67" y="179" type="line"/>
      <point x="27" y="179" type="line"/>
      <point x="17" y="98" type="line"/>
      <point x="42" y="56"/>
      <point x="105" y="9"/>
    </contour>
    <contour>
      <point x="262" y="787" type="line"/>
      <point x="251" y="691" type="line"/>
      <point x="250" y="684" type="line"/>
      <point x="169" y="21" type="line"/>
      <point x="169" y="16" type="line"/>
      <point x="153" y="-120" type="line"/>
      <point x="167" y="-120" type="line"/>
      <point x="183" y="13" type="line"/>
      <point x="184" y="19" type="line"/>
      <point x="264" y="687" type="line"/>
      <point x="265" y="692" type="line"/>
      <point x="277" y="787" type="line"/>
    </contour>
  </outline>
</glyph>
<glyph name="eight.lintab" format="2">
  <advance width="384"/>
  <outline>
    <contour>
      <point x="181" y="8" type="curve" smooth="yes"/>
      <point x="107" y="8"/>
      <point x="60" y="82"/>
      <point x="60" y="188" type="curve" smooth="yes"/>
      <point x="60" y="200"/>
      <point x="61" y="212"/>
      <point x="62" y="223" type="curve" smooth="yes"/>
      <point x="72" y="309"/>
      <point x="119" y="367"/>
      <point x="187" y="367" type="curve" smooth="yes"/>
      <point x="266" y="367"/>
      <point x="306" y="295"/>
      <point x="306" y="199" type="curve" smooth="yes"/>
      <point x="306" y="184"/>
      <point x="305" y="169"/>
      <point x="303" y="153" type="curve" smooth="yes"/>
      <point x="292" y="72"/>
      <point x="250" y="8"/>
    </contour>
    <contour>
      <point x="216" y="385" type="curve" smooth="yes"/>
      <point x="161" y="385"/>
      <point x="122" y="440"/>
      <point x="122" y="534" type="curve" smooth="yes"/>
      <point x="122" y="548"/>
      <point x="123" y="560"/>
      <point x="125" y="572" type="curve" smooth="yes"/>
      <point x="134" y="651"/>
      <point x="173" y="702"/>
      <point x="229" y="702" type="curve" smooth="yes"/>
      <point x="285" y="702"/>
      <point x="324" y="642"/>
      <point x="324" y="551" type="curve" smooth="yes"/>
      <point x="324" y="536"/>
      <point x="323" y="521"/>
      <point x="321" y="508" type="curve" smooth="yes"/>
      <point x="310" y="430"/>
      <point x="270" y="385"/>
    </contour>
    <contour>
      <point x="181" y="-10" type="curve" smooth="yes"/>
      <point x="278" y="-10"/>
      <point x="344" y="81"/>
      <point x="344" y="197" type="curve" smooth="yes"/>
      <point x="344" y="280"/>
      <point x="302" y="352"/>
      <point x="234" y="375" type="curve"/>
      <point x="239" y="366" type="line"/>
      <point x="240" y="376" type="line"/>
      <point x="234" y="370" type="line"/>
      <point x="308" y="381"/>
      <point x="360" y="454"/>
      <point x="360" y="550" type="curve" smooth="yes"/>
      <point x="360" y="648"/>
      <point x="303" y="720"/>
      <point x="229" y="720" type="curve" smooth="yes"/>
      <point x="144" y="720"/>
      <point x="87" y="638"/>
      <point x="87" y="536" type="curve" smooth="yes"/>
      <point x="87" y="456"/>
      <point x="125" y="399"/>
      <point x="173" y="378" type="curve"/>
      <point x="169" y="386" type="line"/>
      <point x="167" y="376" type="line"/>
      <point x="174" y="383" type="line"/>
      <point x="82" y="376"/>
      <point x="22" y="291"/>
      <point x="22" y="188" type="curve" smooth="yes"/>
      <point x="22" y="74"/>
      <point x="91" y="-10"/>
    </contour>
  </outline>
</glyph>
<glyph name="eight.oldprop" format="2">
  <advance width="397"/>
  <outline>
    <contour>
      <point x="197" y="8" type="curve" smooth="yes"/>
      <point x="116" y="8"/>
      <point x="69" y="79"/>
      <point x="69" y="186" type="curve" smooth="yes"/>
      <point x="69" y="200"/>
      <point x="70" y="213"/>
      <point x="71" y="225" type="curve" smooth="yes"/>
      <point x="82" y="311"/>
      <point x="134" y="367"/>
      <point x="203" y="367" type="curve" smooth="yes"/>
      <point x="284" y="367"/>
      <point x="329" y="300"/>
      <point x="329" y="199" type="curve" smooth="yes"/>
      <point x="329" y="183"/>
      <point x="327" y="169"/>
      <point x="325" y="154" type="curve" smooth="yes"/>
      <point x="313" y="66"/>
      <point x="268" y="8"/>
    </contour>
    <contour>
      <point x="232" y="385" type="curve" smooth="yes"/>
      <point x="178" y="385"/>
      <point x="131" y="441"/>
      <point x="131" y="537" type="curve" smooth="yes"/>
      <point x="131" y="551"/>
      <point x="132" y="566"/>
      <point x="134" y="578" type="curve" smooth="yes"/>
      <point x="144" y="653"/>
      <point x="184" y="702"/>
      <point x="245" y="702" type="curve" smooth="yes"/>
      <point x="308" y="702"/>
      <point x="346" y="642"/>
      <point x="346" y="548" type="curve" smooth="yes"/>
      <point x="346" y="536"/>
      <point x="345" y="523"/>
      <point x="344" y="512" type="curve" smooth="yes"/>
      <point x="334" y="433"/>
      <point x="290" y="385"/>
    </contour>
    <contour>
      <point x="196" y="-10" type="curve" smooth="yes"/>
      <point x="297" y="-10"/>
      <point x="366" y="81"/>
      <point x="366" y="197" type="curve" smooth="yes"/>
      <point x="366" y="277"/>
      <point x="323" y="355"/>
      <point x="249" y="378" type="curve"/>
      <point x="255" y="371" type="line"/>
      <point x="256" y="378" type="line"/>
      <point x="248" y="373" type="line"/>
      <point x="326" y="379"/>
      <point x="382" y="456"/>
      <point x="382" y="550" type="curve" smooth="yes"/>
      <point x="382" y="648"/>
      <point x="323" y="720"/>
      <point x="245" y="720" type="curve" smooth="yes"/>
      <point x="154" y="720"/>
      <point x="95" y="640"/>
      <point x="95" y="541" type="curve" smooth="yes"/>
      <point x="95" y="469"/>
      <point x="130" y="401"/>
      <point x="191" y="380" type="curve"/>
      <point x="187" y="386" type="line"/>
      <point x="185" y="377" type="line"/>
      <point x="192" y="384" type="line"/>
      <point x="94" y="379"/>
      <point x="31" y="286"/>
      <point x="31" y="187" type="curve" smooth="yes"/>
      <point x="31" y="70"/>
      <point x="101" y="-10"/>
    </contour>
  </outline>
</glyph>
<glyph name="f.alt" format="2">
  <advance width="203"/>
  <outline>
    <contour>
      <point x="41" y="518" type="line"/>
      <point x="39" y="501" type="line"/>
      <point x="212" y="501" type="line"/>
      <point x="215" y="518" type="line"/>
    </contour>
    <contour>
      <point x="219" y="758" type="curve" smooth="yes"/>
      <point x="160" y="758"/>
      <point x="114" y="703"/>
      <point x="105" y="606" type="curve" smooth="yes"/>
      <point x="25" y="-223" type="line"/>
      <point x="54" y="-223" type="line"/>
      <point x="139" y="603" type="line" smooth="yes"/>
      <point x="148" y="696"/>
      <point x="174" y="741"/>
      <point x="218" y="741" type="curve" smooth="yes"/>
      <point x="242" y="741"/>
      <point x="260" y="728"/>
      <point x="270" y="712" type="curve"/>
      <point x="273" y="719"/>
      <point x="267" y="729"/>
      <point x="260" y="734" type="curve"/>
      <point x="250" y="656" type="line"/>
      <point x="285" y="656" type="line"/>
      <point x="293" y="724" type="line"/>
      <point x="280" y="738"/>
      <point x="251" y="758"/>
    </contour>
  </outline>
</glyph>
<glyph name="f.short" format="2">
  <advance width="192"/>
  <outline>
    <contour>
      <point x="41" y="518" type="line"/>
      <point x="39" y="501" type="line"/>
      <point x="200" y="501" type="line"/>
      <point x="202" y="518" type="line"/>
    </contour>
    <contour>
      <point x="54" y="-223" type="line"/>
      <point x="139" y="608" type="line" smooth="yes"/>
      <point x="148" y="700"/>
      <point x="171" y="741"/>
      <point x="214" y="741" type="curve" smooth="yes"/>
      <point x="233" y="741"/>
      <point x="248" y="733"/>
      <point x="258" y="727" type="curve"/>
      <point x="260" y="746" type="line"/>
      <point x="247" y="754"/>
      <point x="231" y="758"/>
      <point x="214" y="758" type="curve" smooth="yes"/>
      <point x="157" y="758"/>
      <point x="114" y="708"/>
      <point x="105" y="611" type="curve" smooth="yes"/>
      <point x="25" y="-223" type="line"/>
    </contour>
  </outline>
</glyph>
<glyph name="f_f_b" format="2">
  <advance width="746"/>
  <outline>
    <contour>
      <point x="41" y="518" type="line"/>
      <point x="39" y="501" type="line"/>
      <point x="207" y="501" type="line"/>
      <point x="210" y="518" type="line"/>
    </contour>
    <contour>
      <point x="193" y="518" type="line"/>
      <point x="191" y="501" type="line"/>
      <point x="394" y="501" type="line"/>
      <point x="396" y="518" type="line"/>
    </contour>
    <contour>
      <point x="538" y="-10" type="curve" smooth="yes"/>
      <point x="655" y="-10"/>
      <point x="727" y="153"/>
      <point x="727" y="327" type="curve" smooth="yes"/>
      <point x="727" y="441"/>
      <point x="692" y="528"/>
      <point x="622" y="528" type="curve" smooth="yes"/>
      <point x="553" y="528"/>
      <point x="505" y="447"/>
      <point x="459" y="308" type="curve"/>
      <point x="465" y="290" type="line"/>
      <point x="510" y="422"/>
      <point x="555" y="510"/>
      <point x="616" y="510" type="curve" smooth="yes"/>
      <point x="668" y="510"/>
      <point x="689" y="433"/>
      <point x="689" y="329" type="curve" smooth="yes"/>
      <point x="689" y="163"/>
      <point x="636" y="7"/>
      <point x="539" y="7" type="curve" smooth="yes"/>
      <point x="490" y="7"/>
      <point x="446" y="43"/>
      <point x="428" y="87" type="curve"/>
      <point x="430" y="69"/>
      <point x="434" y="53"/>
      <point x="443" y="37" type="curve"/>
      <point x="530" y="750" type="line"/>
      <point x="440" y="750" type="line"/>
      <point x="492" y="725" type="line"/>
      <point x="412" y="61" type="line"/>
      <point x="434" y="26"/>
      <point x="483" y="-10"/>
    </contour>
    <contour>
      <point x="422" y="741" type="curve" smooth="yes"/>
      <point x="459" y="741"/>
      <point x="488" y="724"/>
      <point x="505" y="707" type="curve"/>
      <point x="517" y="728" type="line"/>
      <point x="501" y="744"/>
      <point x="465" y="758"/>
      <point x="423" y="758" type="curve" smooth="yes"/>
      <point x="346" y="758"/>
      <point x="299" y="703"/>
      <point x="289" y="606" type="curve" smooth="yes"/>
      <point x="212" y="-193" type="line"/>
      <point x="241" y="-193" type="line"/>
      <point x="323" y="603" type="line" smooth="yes"/>
      <point x="333" y="694"/>
      <point x="360" y="741"/>
    </contour>
    <contour>
      <point x="221" y="726" type="curve" smooth="yes"/>
      <point x="243" y="726"/>
      <point x="259" y="716"/>
      <point x="267" y="709" type="curve"/>
      <point x="269" y="730" type="line"/>
      <point x="257" y="740"/>
      <point x="240" y="744"/>
      <point x="220" y="744" type="curve" smooth="yes"/>
      <point x="158" y="744"/>
      <point x="113" y="689"/>
      <point x="103" y="594" type="curve" smooth="yes"/>
      <point x="25" y="-223" type="line"/>
      <point x="54" y="-223" type="line"/>
      <point x="138" y="595" type="line" smooth="yes"/>
      <point x="147" y="683"/>
      <point x="171" y="726"/>
    </contour>
  </outline>
</glyph>
<glyph name="f_f_l.alt" format="2">
  <advance width="536"/>
  <outline>
    <contour>
      <point x="149" y="518" type="line"/>
      <point x="147" y="501" type="line"/>
      <point x="353" y="501" type="line"/>
      <point x="355" y="518" type="line"/>
    </contour>
    <contour>
      <point x="86" y="518" type="line"/>
      <point x="83" y="501" type="line"/>
      <point x="256" y="501" type="line"/>
      <point x="258" y="518" type="line"/>
    </contour>
    <contour>
      <point x="459" y="174" type="curve"/>
      <point x="530" y="750" type="line"/>
      <point x="457" y="750" type="line"/>
      <point x="492" y="730" type="line"/>
      <point x="427" y="193" type="line" smooth="yes"/>
      <point x="420" y="135"/>
      <point x="414" y="91"/>
      <point x="414" y="62" type="curve" smooth="yes"/>
      <point x="414" y="13"/>
      <point x="437" y="-7"/>
      <point x="467" y="-7" type="curve" smooth="yes"/>
      <point x="485" y="-7"/>
      <point x="504" y="2"/>
      <point x="511" y="11" type="curve"/>
      <point x="514" y="27" type="line"/>
      <point x="507" y="23"/>
      <point x="491" y="13"/>
      <point x="475" y="13" type="curve" smooth="yes"/>
      <point x="456" y="13"/>
      <point x="448" y="25"/>
      <point x="448" y="57" type="curve" smooth="yes"/>
      <point x="448" y="83"/>
      <point x="454" y="130"/>
    </contour>
    <contour>
      <point x="228" y="725" type="curve" smooth="yes"/>
      <point x="269" y="725"/>
      <point x="300" y="699"/>
      <point x="310" y="671" type="curve"/>
      <point x="310" y="683"/>
      <point x="308" y="696"/>
      <point x="299" y="705" type="curve"/>
      <point x="290" y="608" type="line"/>
      <point x="316" y="592" type="line"/>
      <point x="326" y="691" type="line"/>
      <point x="310" y="717"/>
      <point x="276" y="743"/>
      <point x="228" y="743" type="curve" smooth="yes"/>
      <point x="168" y="743"/>
      <point x="114" y="703"/>
      <point x="104" y="598" type="curve" smooth="yes"/>
      <point x="25" y="-223" type="line"/>
      <point x="54" y="-223" type="line"/>
      <point x="138" y="595" type="line" smooth="yes"/>
      <point x="148" y="696"/>
      <point x="182" y="725"/>
    </contour>
    <contour>
      <point x="422" y="741" type="curve" smooth="yes"/>
      <point x="459" y="741"/>
      <point x="488" y="724"/>
      <point x="505" y="707" type="curve"/>
      <point x="517" y="728" type="line"/>
      <point x="501" y="744"/>
      <point x="465" y="758"/>
      <point x="423" y="758" type="curve" smooth="yes"/>
      <point x="346" y="758"/>
      <point x="299" y="703"/>
      <point x="289" y="606" type="curve" smooth="yes"/>
      <point x="212" y="-193" type="line"/>
      <point x="241" y="-193" type="line"/>
      <point x="323" y="603" type="line" smooth="yes"/>
      <point x="333" y="694"/>
      <point x="360" y="741"/>
    </contour>
  </outline>
</glyph>
<glyph name="f_j.alt" format="2">
  <advance width="345"/>
  <outline>
    <contour>
      <point x="25" y="-223" type="line"/>
      <point x="54" y="-223" type="line"/>
      <point x="138" y="595" type="line" smooth="yes"/>
      <point x="149" y="705"/>
      <point x="183" y="741"/>
      <point x="245" y="741" type="curve" smooth="yes"/>
      <point x="275" y="741"/>
      <point x="301" y="726"/>
      <point x="312" y="712" type="curve"/>
      <point x="312" y="722"/>
      <point x="309" y="730"/>
      <point x="301" y="735" type="curve"/>
      <point x="292" y="660" type="line"/>
      <point x="325" y="660" type="line"/>
      <point x="334" y="725" type="line"/>
      <point x="321" y="739"/>
      <point x="289" y="758"/>
      <point x="245" y="758" type="curve" smooth="yes"/>
      <point x="170" y="758"/>
      <point x="115" y="713"/>
      <point x="104" y="598" type="curve" smooth="yes"/>
    </contour>
    <contour>
      <point x="155" y="-233" type="curve" smooth="yes"/>
      <point x="198" y="-233"/>
      <point x="236" y="-205"/>
      <point x="248" y="-101" type="curve" smooth="yes"/>
      <point x="317" y="518" type="line"/>
      <point x="41" y="518" type="line"/>
      <point x="39" y="501" type="line"/>
      <point x="230" y="501" type="line" smooth="yes"/>
      <point x="266" y="501"/>
      <point x="278" y="491"/>
      <point x="276" y="471" type="curve" smooth="yes"/>
      <point x="213" y="-104" type="line" smooth="yes"/>
      <point x="204" y="-180"/>
      <point x="186" y="-215"/>
      <point x="155" y="-215" type="curve" smooth="yes"/>
      <point x="134" y="-215"/>
      <point x="120" y="-208"/>
      <point x="110" y="-201" type="curve"/>
      <point x="108" y="-219" type="line"/>
      <point x="116" y="-225"/>
      <point x="134" y="-233"/>
    </contour>
  </outline>
</glyph>
<glyph name="f_k" format="2">
  <advance width="524"/>
  <outline>
    <contour>
      <point x="41" y="518" type="line"/>
      <point x="39" y="501" type="line"/>
      <point x="211" y="501" type="line"/>
      <point x="214" y="518" type="line"/>
    </contour>
    <contour>
      <point x="348" y="314" type="line"/>
      <point x="412" y="109" type="line" smooth="yes"/>
      <point x="434" y="36"/>
      <point x="447" y="13"/>
      <point x="466" y="13" type="curve" smooth="yes"/>
      <point x="479" y="13"/>
      <point x="494" y="26"/>
      <point x="500" y="29" type="curve"/>
      <point x="497" y="12" type="line"/>
      <point x="488" y="3"/>
      <point x="474" y="-7"/>
      <point x="457" y="-7" type="curve" smooth="yes"/>
      <point x="423" y="-7"/>
      <point x="404" y="14"/>
      <point x="380" y="94" type="curve" smooth="yes"/>
      <point x="319" y="292" type="line"/>
      <point x="320" y="297" type="line"/>
      <point x="401" y="374"/>
      <point x="445" y="438"/>
      <point x="491" y="518" type="curve"/>
      <point x="526" y="518" type="line"/>
      <point x="526" y="513" type="line"/>
      <point x="469" y="429"/>
      <point x="409" y="364"/>
      <point x="335" y="295" type="curve"/>
    </contour>
    <contour>
      <point x="254" y="0" type="line"/>
      <point x="345" y="750" type="line"/>
      <point x="256" y="750" type="line"/>
      <point x="308" y="726" type="line"/>
      <point x="219" y="0" type="line"/>
    </contour>
    <contour>
      <point x="237" y="741" type="curve" smooth="yes"/>
      <point x="274" y="741"/>
      <point x="304" y="724"/>
      <point x="321" y="707" type="curve"/>
      <point x="332" y="728" type="line"/>
      <point x="317" y="744"/>
      <point x="280" y="758"/>
      <point x="238" y="758" type="curve" smooth="yes"/>
      <point x="161" y="758"/>
      <point x="114" y="703"/>
      <point x="105" y="606" type="curve" smooth="yes"/>
      <point x="25" y="-223" type="line"/>
      <point x="54" y="-223" type="line"/>
      <point x="139" y="603" type="line" smooth="yes"/>
      <point x="148" y="694"/>
      <point x="175" y="741"/>
    </contour>
  </outline>
</glyph>
<glyph name="five.oldprop" format="2">
  <advance width="384"/>
  <outline>
    <contour>
      <point x="18" y="2" type="curve"/>
      <point x="30" y="13" type="line"/>
      <point x="46" y="-65"/>
      <point x="92" y="-132"/>
      <point x="172" y="-132" type="curve" smooth="yes"/>
      <point x="262" y="-132"/>
      <point x="312" y="-30"/>
      <point x="312" y="105" type="curve" smooth="yes"/>
      <point x="312" y="214"/>
      <point x="277" y="287"/>
      <point x="209" y="287" type="curve" smooth="yes"/>
      <point x="153" y="287"/>
      <point x="116" y="248"/>
      <point x="83" y="179" type="curve"/>
      <point x="70" y="179" type="line"/>
      <point x="115" y="549" type="line"/>
      <point x="362" y="549" type="line"/>
      <point x="350" y="507" type="line"/>
      <point x="117" y="507" type="line"/>
      <point x="128" y="539" type="line"/>
      <point x="88" y="206" type="line"/>
      <point x="82" y="204" type="line"/>
      <point x="119" y="279"/>
      <point x="166" y="305"/>
      <point x="211" y="305" type="curve" smooth="yes"/>
      <point x="298" y="305"/>
      <point x="349" y="219"/>
      <point x="349" y="105" type="curve" smooth="yes"/>
      <point x="349" y="-37"/>
      <point x="280" y="-150"/>
      <point x="172" y="-150" type="curve" smooth="yes"/>
      <point x="87" y="-150"/>
      <point x="35" y="-79"/>
    </contour>
  </outline>
</glyph>
<glyph name="five.oldtab" format="2">
  <advance width="384"/>
  <outline>
    <contour>
      <point x="174" y="-150" type="curve" smooth="yes"/>
      <point x="282" y="-150"/>
      <point x="351" y="-37"/>
      <point x="351" y="105" type="curve" smooth="yes"/>
      <point x="351" y="219"/>
      <point x="300" y="305"/>
      <point x="213" y="305" type="curve" smooth="yes"/>
      <point x="168" y="305"/>
      <point x="121" y="279"/>
      <point x="84" y="204" type="curve"/>
      <point x="90" y="206" type="line"/>
      <point x="129" y="539" type="line"/>
      <point x="119" y="507" type="line"/>
      <point x="352" y="507" type="line"/>
      <point x="364" y="549" type="line"/>
      <point x="117" y="549" type="line"/>
      <point x="72" y="179" type="line"/>
      <point x="85" y="179" type="line"/>
      <point x="118" y="248"/>
      <point x="155" y="287"/>
      <point x="211" y="287" type="curve" smooth="yes"/>
      <point x="278" y="287"/>
      <point x="314" y="214"/>
      <point x="314" y="105" type="curve" smooth="yes"/>
      <point x="314" y="-31"/>
      <point x="264" y="-132"/>
      <point x="174" y="-132" type="curve" smooth="yes"/>
      <point x="93" y="-132"/>
      <point x="47" y="-64"/>
      <point x="30" y="16" type="curve"/>
      <point x="18" y="5" type="line"/>
      <point x="36" y="-79"/>
      <point x="88" y="-150"/>
    </contour>
  </outline>
</glyph>
<glyph name="four.oldprop" format="2">
  <advance width="403"/>
  <outline>
    <contour>
      <point x="11" y="53" type="line"/>
      <point x="374" y="53" type="line"/>
      <point x="378" y="85" type="line"/>
      <point x="30" y="85" type="line"/>
      <point x="30" y="69" type="line"/>
      <point x="331" y="540" type="line"/>
      <point x="332" y="549" type="line"/>
      <point x="317" y="549" type="line"/>
      <point x="14" y="73" type="line"/>
    </contour>
    <contour>
      <point x="266" y="-137" type="line"/>
      <point x="348" y="549" type="line"/>
      <point x="325" y="549" type="line"/>
      <point x="309" y="521" type="line"/>
      <point x="230" y="-137" type="line"/>
    </contour>
  </outline>
</glyph>
<glyph name="horn" format="2">
  <advance width="343"/>
  <anchor x="178" y="444" name="_top"/>
  <outline>
    <contour>
      <point x="89" y="506" type="line"/>
      <point x="222" y="495"/>
      <point x="261" y="566"/>
      <point x="267" y="694" type="curve"/>
      <point x="235" y="694" type="line"/>
      <point x="227" y="560"/>
      <point x="202" y="518"/>
      <point x="80" y="518" type="curve"/>
    </contour>
  </outline>
</glyph>
<glyph name="kip.proportional" format="2">
  <advance width="453"/>
  <outline>
    <contour>
      <point x="10" y="0" type="line"/>
      <point x="164" y="0" type="line"/>
      <point x="166" y="15" type="line"/>
      <point x="160" y="15" type="line" smooth="yes"/>
      <point x="137" y="15"/>
      <point x="107" y="18"/>
      <point x="108" y="25" type="curve" smooth="yes"/>
      <point x="188" y="685" type="line" smooth="yes"/>
      <point x="189" y="692"/>
      <point x="218" y="695"/>
      <point x="241" y="695" type="curve" smooth="yes"/>
      <point x="248" y="695" type="line"/>
      <point x="250" y="710" type="line"/>
      <point x="97" y="710" type="line"/>
      <point x="94" y="695" type="line"/>
      <point x="101" y="695" type="line" smooth="yes"/>
      <point x="130" y="695"/>
      <point x="152" y="689"/>
      <point x="150" y="668" type="curve" smooth="yes"/>
      <point x="75" y="42" type="line" smooth="yes"/>
      <point x="73" y="20"/>
      <point x="49" y="15"/>
      <point x="19" y="15" type="curve" smooth="yes"/>
      <point x="13" y="15" type="line"/>
    </contour>
    <contour>
      <point x="50" y="381" type="line"/>
      <point x="48" y="363" type="line"/>
      <point x="386" y="363" type="line"/>
      <point x="387" y="381" type="line"/>
    </contour>
    <contour>
      <point x="272" y="0" type="line"/>
      <point x="412" y="0" type="line"/>
      <point x="414" y="15" type="line"/>
      <point x="407" y="15" type="line" smooth="yes"/>
      <point x="381" y="15"/>
      <point x="375" y="17"/>
      <point x="364" y="42" type="curve" smooth="yes"/>
      <point x="223" y="370" type="line"/>
      <point x="213" y="375" type="line"/>
      <point x="411" y="669" type="line" smooth="yes"/>
      <point x="425" y="689"/>
      <point x="437" y="695"/>
      <point x="461" y="695" type="curve" smooth="yes"/>
      <point x="469" y="695" type="line"/>
      <point x="472" y="710" type="line"/>
      <point x="351" y="710" type="line"/>
      <point x="349" y="695" type="line"/>
      <point x="356" y="695" type="line" smooth="yes"/>
      <point x="382" y="695"/>
      <point x="400" y="687"/>
      <point x="401" y="680" type="curve"/>
      <point x="192" y="373" type="line"/>
      <point x="183" y="369" type="line"/>
      <point x="329" y="27" type="line"/>
      <point x="329" y="19"/>
      <point x="302" y="15"/>
      <point x="281" y="15" type="curve" smooth="yes"/>
      <point x="274" y="15" type="line"/>
    </contour>
  </outline>
</glyph>
<glyph name="lira.proportional" format="2">
  <advance width="418"/>
  <outline>
    <contour>
      <point x="128" y="108" type="line"/>
      <point x="190" y="31"/>
      <point x="232" y="-10"/>
      <point x="278" y="-10" type="curve" smooth="yes"/>
      <point x="331" y="-10"/>
      <point x="355" y="40"/>
      <point x="379" y="142" type="curve"/>
      <point x="369" y="150" type="line"/>
      <point x="345" y="72"/>
      <point x="325" y="37"/>
      <point x="280" y="37" type="curve" smooth="yes"/>
      <point x="242" y="37"/>
      <point x="199" y="47"/>
      <point x="135" y="121" type="curve"/>
    </contour>
    <contour>
      <point x="55" y="418" type="line"/>
      <point x="53" y="400" type="line"/>
      <point x="312" y="400" type="line"/>
      <point x="315" y="418" type="line"/>
    </contour>
    <contour>
      <point x="38" y="272" type="line"/>
      <point x="36" y="254" type="line"/>
      <point x="295" y="254" type="line"/>
      <point x="297" y="272" type="line"/>
    </contour>
    <contour>
      <point x="278" y="720" type="curve" smooth="yes"/>
      <point x="165" y="720"/>
      <point x="113" y="628"/>
      <point x="113" y="511" type="curve" smooth="yes"/>
      <point x="113" y="410"/>
      <point x="137" y="311"/>
      <point x="137" y="225" type="curve" smooth="yes"/>
      <point x="137" y="128"/>
      <point x="116" y="29"/>
      <point x="12" y="15" type="curve"/>
      <point x="9" y="-2" type="line"/>
      <point x="129" y="11"/>
      <point x="166" y="117"/>
      <point x="166" y="233" type="curve" smooth="yes"/>
      <point x="166" y="333"/>
      <point x="150" y="421"/>
      <point x="150" y="508" type="curve" smooth="yes"/>
      <point x="150" y="647"/>
      <point x="194" y="703"/>
      <point x="277" y="703" type="curve" smooth="yes"/>
      <point x="327" y="703"/>
      <point x="364" y="675"/>
      <point x="377" y="646" type="curve"/>
      <point x="380" y="655"/>
      <point x="375" y="671"/>
      <point x="362" y="675" type="curve"/>
      <point x="351" y="591" type="line"/>
      <point x="390" y="591" type="line"/>
      <point x="400" y="662" type="line"/>
      <point x="381" y="685"/>
      <point x="341" y="720"/>
    </contour>
  </outline>
</glyph>
<glyph name="liraTurkish.proportional" format="2">
  <advance width="427"/>
  <outline>
    <contour>
      <point x="33" y="199" type="line"/>
      <point x="31" y="180" type="line"/>
      <point x="324" y="378" type="line"/>
      <point x="326" y="398" type="line"/>
    </contour>
    <contour>
      <point x="53" y="363" type="line"/>
      <point x="51" y="344" type="line"/>
      <point x="344" y="542" type="line"/>
      <point x="346" y="562" type="line"/>
    </contour>
    <contour>
      <point x="186" y="18" type="curve" smooth="yes"/>
      <point x="111" y="18" type="line"/>
      <point x="189" y="667" type="line" smooth="yes"/>
      <point x="192" y="689"/>
      <point x="215" y="695"/>
      <point x="246" y="695" type="curve" smooth="yes"/>
      <point x="253" y="695" type="line"/>
      <point x="256" y="710" type="line"/>
      <point x="100" y="710" type="line"/>
      <point x="98" y="695" type="line"/>
      <point x="105" y="695" type="line" smooth="yes"/>
      <point x="134" y="695"/>
      <point x="156" y="689"/>
      <point x="154" y="668" type="curve" smooth="yes"/>
      <point x="78" y="42" type="line" smooth="yes"/>
      <point x="75" y="21"/>
      <point x="53" y="15"/>
      <point x="24" y="15" type="curve" smooth="yes"/>
      <point x="17" y="15" type="line"/>
      <point x="15" y="0" type="line"/>
      <point x="180" y="0" type="line" smooth="yes"/>
      <point x="297" y="0"/>
      <point x="372" y="90"/>
      <point x="397" y="277" type="curve"/>
      <point x="364" y="289" type="line"/>
      <point x="343" y="103"/>
      <point x="289" y="18"/>
    </contour>
  </outline>
</glyph>
<glyph name="nine.oldtab" format="2">
  <advance width="384"/>
  <outline>
    <contour>
      <point x="22" y="-136" type="line"/>
      <point x="197" y="-129"/>
      <point x="295" y="41"/>
      <point x="315" y="246" type="curve" smooth="yes"/>
      <point x="316" y="271"/>
      <point x="318" y="295"/>
      <point x="318" y="320" type="curve" smooth="yes"/>
      <point x="318" y="459"/>
      <point x="270" y="541"/>
      <point x="199" y="541" type="curve" smooth="yes"/>
      <point x="132" y="541"/>
      <point x="89" y="471"/>
      <point x="77" y="380" type="curve" smooth="yes"/>
      <point x="74" y="362"/>
      <point x="73" y="344"/>
      <point x="73" y="324" type="curve" smooth="yes"/>
      <point x="73" y="210"/>
      <point x="117" y="136"/>
      <point x="179" y="136" type="curve" smooth="yes"/>
      <point x="238" y="136"/>
      <point x="288" y="188"/>
      <point x="323" y="286" type="curve"/>
      <point x="328" y="265" type="line"/>
      <point x="290" y="159"/>
      <point x="234" y="118"/>
      <point x="177" y="118" type="curve" smooth="yes"/>
      <point x="98" y="118"/>
      <point x="35" y="200"/>
      <point x="35" y="324" type="curve" smooth="yes"/>
      <point x="35" y="438"/>
      <point x="95" y="559"/>
      <point x="199" y="559" type="curve" smooth="yes"/>
      <point x="295" y="559"/>
      <point x="355" y="458"/>
      <point x="355" y="313" type="curve" smooth="yes"/>
      <point x="355" y="113"/>
      <point x="253" y="-145"/>
      <point x="22" y="-153" type="curve"/>
    </contour>
  </outline>
</glyph>
<glyph name="one.linprop" format="2">
  <advance width="328"/>
  <outline>
    <contour>
      <point x="169" y="51" type="curve" smooth="yes"/>
      <point x="249" y="710" type="line"/>
      <point x="229" y="710" type="line"/>
      <point x="200" y="658"/>
      <point x="152" y="633"/>
      <point x="91" y="633" type="curve"/>
      <point x="87" y="600" type="line"/>
      <point x="128" y="599"/>
      <point x="195" y="633"/>
      <point x="215" y="680" type="curve"/>
      <point x="209" y="678" type="line"/>
      <point x="134" y="51" type="line" smooth="yes"/>
      <point x="131" y="23"/>
      <point x="107" y="16"/>
      <point x="41" y="16" type="curve" smooth="yes"/>
      <point x="25" y="16" type="line"/>
      <point x="23" y="0" type="line"/>
      <point x="264" y="0" type="line"/>
      <point x="267" y="16" type="line"/>
      <point x="255" y="16" type="line" smooth="yes"/>
      <point x="189" y="16"/>
      <point x="166" y="23"/>
    </contour>
  </outline>
</glyph>
<glyph name="peseta.proportional" format="2">
  <advance width="547"/>
  <outline>
    <contour>
      <point x="13" y="0" type="line"/>
      <point x="153" y="0" type="line"/>
      <point x="155" y="15" type="line"/>
      <point x="143" y="15" type="line" smooth="yes"/>
      <point x="124" y="15"/>
      <point x="100" y="19"/>
      <point x="100" y="27" type="curve" smooth="yes"/>
      <point x="131" y="290" type="line"/>
      <point x="167" y="290" type="line" smooth="yes"/>
      <point x="287" y="290"/>
      <point x="359" y="394"/>
      <point x="359" y="522" type="curve" smooth="yes"/>
      <point x="359" y="636"/>
      <point x="305" y="710"/>
      <point x="200" y="710" type="curve" smooth="yes"/>
      <point x="98" y="710" type="line"/>
      <point x="97" y="695" type="line"/>
      <point x="104" y="695" type="line" smooth="yes"/>
      <point x="126" y="695"/>
      <point x="144" y="690"/>
      <point x="142" y="671" type="curve" smooth="yes"/>
      <point x="66" y="39" type="line" smooth="yes"/>
      <point x="64" y="20"/>
      <point x="45" y="15"/>
      <point x="21" y="15" type="curve" smooth="yes"/>
      <point x="15" y="15" type="line"/>
    </contour>
    <contour>
      <point x="200" y="692" type="line" smooth="yes"/>
      <point x="282" y="692"/>
      <point x="325" y="631"/>
      <point x="322" y="529" type="curve" smooth="yes"/>
      <point x="322" y="509"/>
      <point x="321" y="489"/>
      <point x="318" y="468" type="curve" smooth="yes"/>
      <point x="305" y="370"/>
      <point x="252" y="307"/>
      <point x="167" y="307" type="curve" smooth="yes"/>
      <point x="134" y="307" type="line"/>
      <point x="180" y="692" type="line"/>
    </contour>
    <contour>
      <point x="417" y="509" type="line"/>
      <point x="376" y="161" type="line" smooth="yes"/>
      <point x="372" y="138"/>
      <point x="370" y="115"/>
      <point x="370" y="96" type="curve" smooth="yes"/>
      <point x="370" y="19"/>
      <point x="411" y="-10"/>
      <point x="452" y="-10" type="curve" smooth="yes"/>
      <point x="468" y="-10"/>
      <point x="483" y="-7"/>
      <point x="492" y="-1" type="curve"/>
      <point x="494" y="17" type="line"/>
      <point x="485" y="11"/>
      <point x="471" y="8"/>
      <point x="455" y="8" type="curve" smooth="yes"/>
      <point x="431" y="8"/>
      <point x="404" y="28"/>
      <point x="404" y="92" type="curve" smooth="yes"/>
      <point x="404" y="112"/>
      <point x="406" y="134"/>
      <point x="410" y="160" type="curve" smooth="yes"/>
      <point x="466" y="631" type="line"/>
      <point x="445" y="631" type="line"/>
      <point x="435" y="572" type="line" smooth="yes"/>
      <point x="426" y="523"/>
      <point x="403" y="516"/>
      <point x="369" y="516" type="curve" smooth="yes"/>
      <point x="340" y="516" type="line"/>
      <point x="338" y="501" type="line"/>
      <point x="535" y="501" type="line"/>
      <point x="538" y="518" type="line"/>
      <point x="441" y="518" type="line"/>
    </contour>
  </outline>
</glyph>
<glyph name="plus.sup" format="2">
  <advance width="261"/>
  <outline>
    <contour>
      <point x="170" y="699" type="line"/>
      <point x="136" y="423" type="line"/>
      <point x="147" y="423" type="line"/>
      <point x="180" y="699" type="line"/>
    </contour>
    <contour>
      <point x="250" y="568" type="line"/>
      <point x="68" y="568" type="line"/>
      <point x="67" y="554" type="line"/>
      <point x="248" y="554" type="line"/>
    </contour>
  </outline>
</glyph>
<glyph name="ringhalfleft" format="2">
  <advance width="343"/>
  <anchor x="184" y="566" name="_top"/>
  <outline>
    <contour>
      <point x="173" y="597" type="curve"/>
      <point x="173" y="612" type="line"/>
      <point x="151" y="612"/>
      <point x="138" y="634"/>
      <point x="138" y="677" type="curve" smooth="yes"/>
      <point x="138" y="726"/>
      <point x="154" y="753"/>
      <point x="180" y="753" type="curve"/>
      <point x="180" y="769" type="line"/>
      <point x="141" y="769"/>
      <point x="109" y="736"/>
      <point x="109" y="677" type="curve" smooth="yes"/>
      <point x="109" y="625"/>
      <point x="139" y="597"/>
    </contour>
  </outline>
</glyph>
<glyph name="ringhalfright" format="2">
  <advance width="343"/>
  <anchor x="154" y="566" name="_top"/>
  <outline>
    <contour>
      <point x="173" y="597" type="line"/>
      <point x="211" y="597"/>
      <point x="244" y="629"/>
      <point x="244" y="689" type="curve" smooth="yes"/>
      <point x="244" y="740"/>
      <point x="215" y="769"/>
      <point x="180" y="769" type="curve"/>
      <point x="180" y="753" type="line"/>
      <point x="201" y="753"/>
      <point x="215" y="731"/>
      <point x="215" y="689" type="curve" smooth="yes"/>
      <point x="215" y="639"/>
      <point x="198" y="612"/>
      <point x="173" y="612" type="curve"/>
    </contour>
  </outline>
</glyph>
<glyph name="seven.linprop" format="2">
  <advance width="376"/>
  <outline>
    <contour>
      <point x="160" y="668" type="line" smooth="yes"/>
      <point x="118" y="668"/>
      <point x="101" y="661"/>
      <point x="93" y="622" type="curve" smooth="yes"/>
      <point x="75" y="529" type="line"/>
      <point x="61" y="529" type="line"/>
      <point x="83" y="710" type="line"/>
      <point x="393" y="710" type="line"/>
      <point x="389" y="682" type="line"/>
      <point x="288" y="522"/>
      <point x="195" y="336"/>
      <point x="152" y="0" type="curve"/>
      <point x="115" y="0" type="line"/>
      <point x="161" y="340"/>
      <point x="292" y="549"/>
      <point x="373" y="683" type="curve"/>
      <point x="374" y="668" type="line"/>
    </contour>
  </outline>
</glyph>
<glyph name="seven.midprop" format="2">
  <advance width="381"/>
  <outline>
    <contour>
      <point x="155" y="569" type="line" smooth="yes"/>
      <point x="113" y="569"/>
      <point x="96" y="561"/>
      <point x="87" y="519" type="curve" smooth="yes"/>
      <point x="69" y="428" type="line"/>
      <point x="56" y="428" type="line"/>
      <point x="77" y="609" type="line"/>
      <point x="392" y="609" type="line"/>
      <point x="388" y="581" type="line"/>
      <point x="279" y="410"/>
      <point x="191" y="235"/>
      <point x="144" y="-77" type="curve"/>
      <point x="107" y="-77" type="line"/>
      <point x="156" y="222"/>
      <point x="277" y="431"/>
      <point x="373" y="580" type="curve"/>
      <point x="374" y="569" type="line"/>
    </contour>
  </outline>
</glyph>
<glyph name="six.midprop" format="2">
  <advance width="390"/>
  <outline>
    <contour>
      <point x="368" y="723" type="line"/>
      <point x="215" y="698"/>
      <point x="98" y="534"/>
      <point x="76" y="316" type="curve" smooth="yes"/>
      <point x="74" y="292"/>
      <point x="73" y="267"/>
      <point x="73" y="241" type="curve" smooth="yes"/>
      <point x="73" y="85"/>
      <point x="126" y="8"/>
      <point x="194" y="8" type="curve" smooth="yes"/>
      <point x="264" y="8"/>
      <point x="310" y="92"/>
      <point x="322" y="195" type="curve" smooth="yes"/>
      <point x="324" y="213"/>
      <point x="325" y="232"/>
      <point x="325" y="252" type="curve" smooth="yes"/>
      <point x="325" y="358"/>
      <point x="289" y="440"/>
      <point x="219" y="440" type="curve" smooth="yes"/>
      <point x="158" y="440"/>
      <point x="108" y="385"/>
      <point x="69" y="278" type="curve"/>
      <point x="65" y="299" type="line"/>
      <point x="102" y="403"/>
      <point x="159" y="458"/>
      <point x="222" y="458" type="curve" smooth="yes"/>
      <point x="311" y="458"/>
      <point x="363" y="367"/>
      <point x="363" y="251" type="curve" smooth="yes"/>
      <point x="363" y="111"/>
      <point x="291" y="-10"/>
      <point x="194" y="-10" type="curve" smooth="yes"/>
      <point x="106" y="-10"/>
      <point x="35" y="80"/>
      <point x="35" y="249" type="curve" smooth="yes"/>
      <point x="35" y="470"/>
      <point x="164" y="709"/>
      <point x="368" y="740" type="curve"/>
    </contour>
  </outline>
</glyph>
<glyph name="thai:baht.proportional" format="2">
  <advance width="431"/>
  <outline>
    <contour>
      <point x="269" y="790" type="line"/>
      <point x="258" y="702" type="line"/>
      <point x="257" y="693" type="line"/>
      <point x="176" y="16" type="line"/>
      <point x="175" y="6" type="line"/>
      <point x="160" y="-119" type="line"/>
      <point x="174" y="-119" type="line"/>
      <point x="189" y="7" type="line"/>
      <point x="191" y="17" type="line"/>
      <point x="272" y="694" type="line"/>
      <point x="273" y="702" type="line"/>
      <point x="284" y="790" type="line"/>
    </contour>
    <contour>
      <point x="236" y="370" type="line"/>
      <point x="346" y="370"/>
      <point x="397" y="458"/>
      <point x="397" y="556" type="curve" smooth="yes"/>
      <point x="397" y="641"/>
      <point x="354" y="709"/>
      <point x="253" y="709" type="curve" smooth="yes"/>
      <point x="78" y="709" type="line"/>
      <point x="77" y="693" type="line"/>
      <point x="84" y="693" type="line" smooth="yes"/>
      <point x="111" y="693"/>
      <point x="132" y="688"/>
      <point x="129" y="666" type="curve" smooth="yes"/>
      <point x="55" y="42" type="line" smooth="yes"/>
      <point x="52" y="21"/>
      <point x="29" y="15"/>
      <point x="2" y="15" type="curve" smooth="yes"/>
      <point x="-5" y="15" type="line"/>
      <point x="-7" y="0" type="line"/>
      <point x="201" y="0" type="line" smooth="yes"/>
      <point x="324" y="0"/>
      <point x="383" y="80"/>
      <point x="383" y="210" type="curve" smooth="yes"/>
      <point x="383" y="300"/>
      <point x="340" y="373"/>
      <point x="236" y="377" type="curve"/>
      <point x="254" y="367" type="line"/>
      <point x="257" y="379" type="line"/>
    </contour>
    <contour>
      <point x="131" y="381" type="line"/>
      <point x="168" y="691" type="line"/>
      <point x="251" y="691" type="line" smooth="yes"/>
      <point x="332" y="691"/>
      <point x="361" y="636"/>
      <point x="361" y="556" type="curve" smooth="yes"/>
      <point x="361" y="446"/>
      <point x="317" y="381"/>
      <point x="223" y="381" type="curve" smooth="yes"/>
    </contour>
    <contour>
      <point x="87" y="18" type="line"/>
      <point x="128" y="364" type="line"/>
      <point x="226" y="364" type="line" smooth="yes"/>
      <point x="312" y="364"/>
      <point x="346" y="295"/>
      <point x="346" y="212" type="curve" smooth="yes"/>
      <point x="346" y="79"/>
      <point x="298" y="18"/>
      <point x="205" y="18" type="curve" smooth="yes"/>
    </contour>
  </outline>
</glyph>
<glyph name="two.oldprop" format="2">
  <advance width="384"/>
  <outline>
    <contour>
      <point x="328" y="40" type="line"/>
      <point x="43" y="40" type="line"/>
      <point x="46" y="27" type="line"/>
      <point x="210" y="150"/>
      <point x="336" y="249"/>
      <point x="336" y="403" type="curve" smooth="yes"/>
      <point x="336" y="513"/>
      <point x="285" y="558"/>
      <point x="207" y="558" type="curve" smooth="yes"/>
      <point x="148" y="558"/>
      <point x="105" y="519"/>
      <point x="80" y="491" type="curve"/>
      <point x="69" y="403" type="line"/>
      <point x="108" y="403" type="line"/>
      <point x="120" y="511" type="line"/>
      <point x="112" y="504"/>
      <point x="99" y="491"/>
      <point x="98" y="480" type="curve"/>
      <point x="138" y="524"/>
      <point x="168" y="540"/>
      <point x="207" y="540" type="curve" smooth="yes"/>
      <point x="263" y="540"/>
      <point x="299" y="504"/>
      <point x="299" y="405" type="curve" smooth="yes"/>
      <point x="299" y="245"/>
      <point x="197" y="165"/>
      <point x="17" y="24" type="curve"/>
      <point x="14" y="0" type="line"/>
      <point x="323" y="0" type="line"/>
    </contour>
  </outline>
</glyph>
<glyph name="whitecircle" format="2">
  <advance width="405"/>
  <outline>
    <contour>
      <point x="202" y="80" type="curve" smooth="yes"/>
      <point x="289" y="80"/>
      <point x="357" y="177"/>
      <point x="357" y="304" type="curve" smooth="yes"/>
      <point x="357" y="431"/>
      <point x="289" y="528"/>
      <point x="202" y="528" type="curve" smooth="yes"/>
      <point x="117" y="528"/>
      <point x="48" y="431"/>
      <point x="48" y="304" type="curve" smooth="yes"/>
      <point x="48" y="177"/>
      <point x="117" y="80"/>
    </contour>
    <contour>
      <point x="202" y="137" type="curve" smooth="yes"/>
      <point x="137" y="137"/>
      <point x="90" y="205"/>
      <point x="90" y="304" type="curve" smooth="yes"/>
      <point x="90" y="403"/>
      <point x="137" y="471"/>
      <point x="202" y="471" type="curve" smooth="yes"/>
      <point x="269" y="471"/>
      <point x="316" y="403"/>
      <point x="316" y="304" type="curve" smooth="yes"/>
      <point x="316" y="205"/>
      <point x="269" y="137"/>
    </contour>
  </outline>
</glyph>
<glyph name="whiteuppointingtriangle" format="2">
  <advance width="442"/>
  <outline>
    <contour>
      <point x="411" y="91" type="line"/>
      <point x="228" y="464" type="line"/>
      <point x="44" y="91" type="line"/>
    </contour>
    <contour>
      <point x="348" y="125" type="line"/>
      <point x="353" y="141" type="line"/>
      <point x="103" y="141" type="line"/>
      <point x="108" y="125" type="line"/>
      <point x="232" y="380" type="line"/>
      <point x="224" y="380" type="line"/>
    </contour>
  </outline>
</glyph>
<glyph name="zero.propslash" format="2">
  <advance width="400"/>
  <outline>
    <contour>
      <point x="67" y="130" type="line"/>
      <point x="339" y="460" type="line"/>
      <point x="336" y="480" type="line"/>
      <point x="60" y="147" type="line"/>
    </contour>
    <contour>
      <point x="173" y="-10" type="curve" smooth="yes"/>
      <point x="290" y="-10"/>
      <point x="375" y="162"/>
      <point x="375" y="353" type="curve" smooth="yes"/>
      <point x="375" y="514"/>
      <point x="312" y="619"/>
      <point x="227" y="619" type="curve" smooth="yes"/>
      <point x="109" y="619"/>
      <point x="24" y="447"/>
      <point x="24" y="255" type="curve" smooth="yes"/>
      <point x="24" y="95"/>
      <point x="88" y="-10"/>
    </contour>
    <contour>
      <point x="174" y="8" type="curve" smooth="yes"/>
      <point x="103" y="8"/>
      <point x="61" y="98"/>
      <point x="61" y="252" type="curve" smooth="yes"/>
      <point x="61" y="313"/>
      <point x="69" y="371"/>
      <point x="81" y="423" type="curve" smooth="yes"/>
      <point x="108" y="528"/>
      <point x="161" y="601"/>
      <point x="225" y="601" type="curve" smooth="yes"/>
      <point x="296" y="601"/>
      <point x="337" y="511"/>
      <point x="337" y="356" type="curve" smooth="yes"/>
      <point x="337" y="300"/>
      <point x="331" y="243"/>
      <point x="318" y="191" type="curve" smooth="yes"/>
      <point x="293" y="87"/>
      <point x="241" y="8"/>
    </contour>
  </outline>
</glyph>
